<svg xmlns="http://www.w3.org/2000/svg" width="25" height="38.764" viewBox="0 0 25 38.764"><defs><style>.a{fill:#ff6418;}.b{fill:#c54100;}</style></defs><g transform="translate(-171 -533)"><path class="a" d="M30.3,2.5A12.492,12.492,0,0,0,17.8,15c0,4.93,6.328,16.576,9.977,22.9,2.36,6.476,3.921,1.941,5.047,0C36.472,31.576,42.8,19.891,42.8,15A12.492,12.492,0,0,0,30.3,2.5Zm0,19.643A7.143,7.143,0,1,1,37.443,15,7.149,7.149,0,0,1,30.3,22.143Z" transform="translate(153.2 530.5)"/><circle class="b" cx="7.395" cy="7.395" r="7.395" transform="translate(176.449 537.985)"/></g></svg>