<svg xmlns="http://www.w3.org/2000/svg" width="16.098" height="16.25" viewBox="0 0 16.098 16.25"><defs><style>.a{stroke:#000;stroke-width:0.25px;}</style></defs><g transform="translate(-11.483 -11.131)"><path class="a" d="M18.4,11.458H12a.39.39,0,0,0-.39.39v6.4a.39.39,0,0,0,.39.39h6.4a.39.39,0,0,0,.39-.39v-6.4A.39.39,0,0,0,18.4,11.458Zm-.39,6.4H12.388V12.237h5.624Zm.39,2.213H12a.39.39,0,0,0-.39.39v6.4a.39.39,0,0,0,.39.39h6.4a.39.39,0,0,0,.39-.39v-6.4A.39.39,0,0,0,18.4,20.073Zm-.39,6.4H12.388V20.853h5.624Zm9-6.4h-6.4a.39.39,0,0,0-.39.39v6.4a.39.39,0,0,0,.39.39h6.4a.39.39,0,0,0,.39-.39v-6.4a.39.39,0,0,0-.39-.39Zm-.39,6.4H21V20.853h5.623Zm.805-10.425a2.063,2.063,0,0,0-.5-.808l-.012-.533a2.073,2.073,0,0,0,.468-.83.39.39,0,0,0-.041-.312l-.591-.97a.39.39,0,0,0-.259-.18,2.087,2.087,0,0,0-.951.033l-.468-.256a2.057,2.057,0,0,0-.486-.819.408.408,0,0,0-.291-.121l-1.136.026a.39.39,0,0,0-.285.134,2.066,2.066,0,0,0-.448.842l-.455.277a2.055,2.055,0,0,0-.952.011.39.39,0,0,0-.251.192l-.546,1a.392.392,0,0,0-.027.312,2.069,2.069,0,0,0,.507.808l.012.533a2.073,2.073,0,0,0-.468.83.39.39,0,0,0,.041.312l.591.971a.39.39,0,0,0,.258.18,2.063,2.063,0,0,0,.952-.033l.468.256a2.071,2.071,0,0,0,.486.819.39.39,0,0,0,.282.121h.009l1.136-.027a.39.39,0,0,0,.285-.134,2.068,2.068,0,0,0,.448-.841l.455-.277a2.072,2.072,0,0,0,.954-.011.39.39,0,0,0,.249-.192l.546-1a.39.39,0,0,0,.023-.313Zm-1.167.774a1.18,1.18,0,0,1-.372,0,.39.39,0,0,0-.457-.039l-.823.5a.39.39,0,0,0-.177.423,1.2,1.2,0,0,1-.17.331l-.764.018a1.169,1.169,0,0,1-.185-.323.39.39,0,0,0-.195-.414l-.847-.463a.39.39,0,0,0-.455.058,1.208,1.208,0,0,1-.371.018l-.4-.653a1.2,1.2,0,0,1,.187-.322.39.39,0,0,0,.26-.377l-.022-.964a.39.39,0,0,0-.278-.364,1.193,1.193,0,0,1-.2-.312l.367-.67a1.183,1.183,0,0,1,.372,0,.39.39,0,0,0,.457.039l.825-.5a.39.39,0,0,0,.177-.423,1.17,1.17,0,0,1,.17-.331l.764-.018a1.191,1.191,0,0,1,.185.322.39.39,0,0,0,.195.414l.847.464a.39.39,0,0,0,.455-.058,1.192,1.192,0,0,1,.374-.019l.4.653a1.187,1.187,0,0,1-.187.322.39.39,0,0,0-.26.377l.022.965a.39.39,0,0,0,.278.364,1.181,1.181,0,0,1,.2.312Z" transform="translate(0 0)"/></g></svg>