<svg xmlns="http://www.w3.org/2000/svg" width="16" height="15.667" viewBox="0 0 16 15.667"><defs><style>.a,.c{fill:none;}.a,.b,.c{stroke:#f85f14;}.a{stroke-width:1.33px;}.b{fill:#fff;}.b,.c{stroke-linecap:round;stroke-linejoin:round;stroke-width:1.333px;}</style></defs><g transform="translate(-142 -218.333)"><path class="a" d="M157.335,231.419c0,.056-.035.223-.367.476a5.208,5.208,0,0,1-1.515.716,20.9,20.9,0,0,1-10.906,0,5.208,5.208,0,0,1-1.515-.716c-.332-.253-.367-.42-.367-.476s.035-.222.367-.475a5.206,5.206,0,0,1,1.515-.717,20.925,20.925,0,0,1,10.906,0,5.206,5.206,0,0,1,1.515.717C157.3,231.2,157.335,231.364,157.335,231.419Z"/><path class="b" d="M155.25,224.25c0,4.083-5.25,7.583-5.25,7.583s-5.25-3.5-5.25-7.583a5.25,5.25,0,0,1,10.5,0Z"/><path class="c" d="M150,225.583a1.75,1.75,0,1,0-1.75-1.75A1.75,1.75,0,0,0,150,225.583Z"/></g></svg>