<svg xmlns="http://www.w3.org/2000/svg" width="22.72" height="17.998" viewBox="0 0 22.72 17.998"><defs><style>.a,.b{fill:#fff;}.a,.c{stroke:#ff6418;stroke-width:1.5px;}.c,.e{fill:none;}.d,.f{stroke:none;}.f{fill:#ff6418;}</style></defs><g transform="translate(-0.277 -2.221)"><g class="a" transform="translate(4.499 2.221)"><circle class="d" cx="5" cy="5" r="5"/><circle class="e" cx="5" cy="5" r="4.25"/></g><g class="b" transform="translate(0.277 11.219)"><path class="d" d="M 0.7782728672027588 8.247919082641602 C 0.9326151609420776 5.846297264099121 1.695160746574402 3.996063232421875 3.049889087677002 2.741058349609375 C 4.476048946380615 1.419888377189636 6.553668975830078 0.7499983310699463 9.225038528442383 0.7499983310699463 C 12.09775924682617 0.7499983310699463 14.50360870361328 1.644728302955627 15.99938869476318 3.269368410110474 C 17.16483116149902 4.535202026367188 17.75911521911621 6.235692024230957 17.73678207397461 8.219377517700195 C 17.57313919067383 8.216734886169434 17.38294982910156 8.214389801025391 17.16741943359375 8.212358474731445 C 16.4210090637207 8.205338478088379 15.33823871612549 8.201778411865234 13.94917869567871 8.201778411865234 C 10.22939872741699 8.201778411865234 5.017209053039551 8.227298736572266 2.217038869857788 8.241018295288086 C 1.643621683120728 8.243827819824219 1.151707887649536 8.246237754821777 0.7782728672027588 8.247919082641602 Z"/><path class="f" d="M 9.225038528442383 1.499998092651367 C 6.748759269714355 1.499998092651367 4.842629432678223 2.102668285369873 3.559578895568848 3.291258335113525 C 2.501855850219727 4.27112340927124 1.847236633300781 5.680745601654053 1.605201721191406 7.494001865386963 C 1.795173645019531 7.493078708648682 1.998498916625977 7.492081642150879 2.213348388671875 7.491028308868408 C 5.014168739318848 7.47730827331543 10.22755908966064 7.451778411865234 13.94917869567871 7.451778411865234 C 15.21625900268555 7.451778411865234 16.22934532165527 7.454738616943359 16.9657096862793 7.460591793060303 C 16.85535049438477 5.989233493804932 16.34722328186035 4.754455089569092 15.44762897491455 3.777368545532227 C 14.09552955627441 2.308778285980225 11.88563919067383 1.499998092651367 9.225038528442383 1.499998092651367 M 9.225038528442383 -1.9073486328125e-06 C 14.82149887084961 -1.9073486328125e-06 18.92934989929199 3.20684814453125 18.4500789642334 8.999998092651367 C 18.43303871154785 8.963845252990723 16.52817916870117 8.951773643493652 13.94918060302734 8.951773643493652 C 8.76909351348877 8.951773643493652 0.8671436309814453 9.000454902648926 0.06599807739257813 9.000454902648926 C 0.0219573974609375 9.000454902648926 -0.00051116943359375 9.000308036804199 -1.9073486328125e-06 8.999998092651367 C 0.07026863098144531 2.842318534851074 3.628579139709473 -1.9073486328125e-06 9.225038528442383 -1.9073486328125e-06 Z"/></g><g transform="translate(16.997 6.72)"><line class="c" y2="6" transform="translate(3)"/><line class="c" x2="6" transform="translate(0 3)"/></g></g></svg>