<svg id="Layer_1" data-name="Layer 1" xmlns="http://www.w3.org/2000/svg" viewBox="0 0 1004.71 2174.44"><defs><style>.cls-1{fill:#e8e5e1;}.cls-2{fill:#f2f0ee;}.cls-3{fill:#fff;}.cls-4{fill:#8c8279;}.cls-5{fill:#6e6259;}.cls-6{fill:#ff6418;}</style></defs><rect class="cls-1" x="-1.07" y="-5.73" width="1005.4" height="2175.95"/><polygon class="cls-2" points="64.64 2177.44 -0.18 2177.44 -0.29 -5.73 500.26 -5.73 64.64 2177.44"/><path d="M630.67,250.25l-7.39,4.28h0a30,30,0,0,0-14.77-24.08l-28.36-16.39V196.92L563.9,157.33,549,148.62c-.59-10.64-14.62-27.63-25.26-33.83h0l-17.13-9.9-15.81,9.16V95.88L231.09-53.91,155.45-10.33V72.54l9.16,5.32c-6.2,5-5.76,18.17,1.18,30.28,7.39,12.85,19.5,19.8,26.89,15.51l8-4.58a47.05,47.05,0,0,0,4.72,12c7.39,12.85,19.5,19.79,26.89,15.51l25.55-14.77,64.12,37.07c-6.21,5-5.77,18.17,1.18,30.29,7.38,12.85,19.5,19.79,26.88,15.51l8-4.58a46.78,46.78,0,0,0,4.73,12c7.38,12.86,19.49,19.8,26.88,15.51l8.86-5v5.62l95.87,55.39c-1.33-3.84-5.76-14.18,2.22-23.78l3.69,2.07c-6.2,5-5.76,18.17,1.18,30.28,7.39,12.85,19.5,19.79,26.89,15.51l10.93-6.35v2.06l9.16,5.32L640,265.76V256ZM419.73,222l13.14-7.53v15.07Z"/><path class="cls-1" d="M542.33,305.94l5,2.95v5.76l-5-2.95Zm-47.86-37.67a22.75,22.75,0,0,0-4.28,19.35l-88.63-51.11V214.65Zm68.25,4.43v4.88A29.34,29.34,0,0,0,550.61,264l-28.37-16.4v-14L549,249.07a27.74,27.74,0,0,1,13.74,23.63ZM449.86,159.11c7.09,4,24.08,20.68,23.93,32.94l15.51,9L505,239.32v18l29.69,17.13a27.93,27.93,0,0,1,13.44,21.72L435.38,231V150.69Z"/><polygon points="487.23 203.57 477.19 197.66 477.19 221.29 494.62 231.34 487.23 203.57"/><path class="cls-3" d="M342.17,188.21c3,5.17,3,10.78,0,12.4s-7.83-1-10.78-6.2-3-10.78,0-12.41S339.22,183,342.17,188.21Zm29.1,16.69c-2.95,1.77-2.95,7.24,0,12.41s7.83,8,10.79,6.2,2.95-7.24,0-12.41S374.23,203.13,371.27,204.9Zm-197.5-114c-3,1.77-3,7.24,0,12.41s7.83,8,10.79,6.2,2.95-7.24,0-12.41S176.73,89.23,173.77,90.86Zm39.74,23c-3,1.78-3,7.24,0,12.41s7.83,8,10.78,6.21,3-7.24,0-12.41S216.61,112.13,213.51,113.9ZM635.69,256.31l-86.86,50.22-5-2.95,86.86-50.23Zm-15.06-.3L609,262.8V247.59a28.68,28.68,0,0,0-5.47-16.84c4.43,2.51,8.57,4.43,12.41,10.34A27.93,27.93,0,0,1,620.63,256ZM490.48,198.4l-12.55-7.24L547.65,151l12.56,7.24Zm30.14,105.18c-3,1.77-7.83-1-10.78-6.21s-3-10.78,0-12.41,7.82,1,10.78,6.21S523.57,301.8,520.62,303.58Zm-19.94-100,9.75,23.78,58.2-33.68-9.75-23.78Zm62.93,4-40,23,26.74,15.51a30.29,30.29,0,0,1,10.19,9.6l40.77-23.63a27.46,27.46,0,0,0-8.71-7.83Zm-113-51.26,69.72-40.18-13.88-8-69.73,40.18Zm100.3,140,11.82-6.8a27.84,27.84,0,0,0-13.44-23.34l-28.37-16.39-11.67,6.79,27,15.51a30.67,30.67,0,0,1,14.62,24.23ZM480,202.39l5,3,5.46,20.53L480,219.82Z"/><path class="cls-3" d="M251-39.58l17,9.75L197,11.39l-17-9.9ZM271-28.06l17,9.9-71.2,41.07-17-9.9Zm19.8,11.38,17.13,9.9L236.7,34.28l-17-9.9ZM310.71-5.16l17,9.9L256.49,45.8l-17-9.89ZM330.5,6.21l17,9.9L276.44,57.18l-17-9.9Zm19.94,11.53,17,9.89L296.23,68.7l-17-9.9Zm19.8,11.52,17,9.9L316,80.22l-17-9.89Zm19.94,11.37,17,9.9L336,91.6l-17-9.9ZM410,52.16l17,9.89-71.2,41.07-17-9.9Zm-34.27,62.33-17-9.89,71.2-41.07,17,9.9Zm74.45-39.14,17,9.9-71.2,41.06-17-9.9ZM470,86.87l17,9.9-71.2,41.06-17-9.75ZM177-.14,160-10l71.2-41.07,17,9.9Z"/><path d="M644.47,395.46l-19.27-46.8-17.34-10c-.77-12.65-16.52-30.32-26.9-37.44l.11-.07-22.64-13.05-85.5,49.19v18.41l-33.18-19.08L405.7,356.22c-8.6-11.77-20.46-17.61-28.11-13.21L346.39,361c-8.6,4.95-8.6,21,0,35.87s22.59,22.88,31.2,17.93l9.3-5.35a49.26,49.26,0,0,0,5.55,13.89c8.61,14.85,22.58,22.88,31.19,17.93l10-5.75v6.43L545.2,506c-1.94-5.75-6.59-16.86,2.22-27.54l4.05,2.31c-7,5.92-6.5,20.87,1.56,34.77,8.61,14.85,22.58,22.88,31.2,17.94l12.53-7.22v2.3l10.75,6.18,106.2-61v-11.5l-11.39-6.55-8.39,4.82a12.6,12.6,0,0,0-.18-1.83,34.8,34.8,0,0,0-17-25.88l-32.27-17.59Z"/><path d="M212.44,313c-8.61-14.86-10.42-34.3-1.81-39.25l60.48-37.16,32.56,20.9,137.23,79-44.19,34.84-72.11-41.8-24.92,22.17-10,5.75c-8.61,4.95-22.57-3.09-31.19-17.94a49.08,49.08,0,0,1-5.55-13.88l-9.3,5.35C235,335.86,221,327.85,212.44,313Z"/><path class="cls-3" d="M232.81,311.92c3.2-1.87,3.17-7.89-.07-13.44s-8.46-8.53-11.66-6.66-3.17,7.89.07,13.44S229.61,313.79,232.81,311.92Z"/><path class="cls-3" d="M281.08,343.41c3.38-2,3.34-8.34-.08-14.2s-8.93-9-12.31-7-3.35,8.33.08,14.2S277.7,345.38,281.08,343.41Z"/><path class="cls-4" d="M600.2,520.42l5.6,3.14v6.3l-5.55-3.18Zm-60.86-21.66L437.11,440V415.15l107.27,61.66a26.38,26.38,0,0,0-5,21.95Zm84.09-17v4.76a34.11,34.11,0,0,0-13.87-15.1l-32.65-18.81V436.87l30.72,17.67a31.4,31.4,0,0,1,15.8,27.25Zm-147-140.43,16.53,9.5c10.47,5.88,27.73,25.61,27.73,37v1l18,10.36,18.11,44.05v20.94s35.68,20.54,36.13,20.84c12.64,8.37,13.61,22.19,13.74,23.53L476.4,433.75Z"/><path d="M524.41,395V422.6l20.65,11.86-8.59-32.57Z"/><path class="cls-3" d="M658.09,426.11a32.41,32.41,0,0,1,10,8.88l-47,27a34.94,34.94,0,0,0-11.69-10.93L578.6,433.41l46-26.45ZM592.9,481.06l-31-17.82,13.25-7.54,32.72,18.81a31.61,31.61,0,0,1,15.56,26.65l-13.33,7.66a34.9,34.9,0,0,0-17.19-27.76Zm36.31-90.74-65.64,37.77L553,402.52l65.66-37.75ZM607.48,520.63l-5.54-3.19,100.35-57.68,5.55,3.17ZM539.94,396.05l-14.18-8.14,80.37-46.2,14.21,8.15C585.73,369.75,598.47,362.44,539.94,396.05Zm34.15-94.87-80.36,46.2-15.62-9,80.32-46.18Zm-121,102.75,19.84,11.42v16.42l-34.1-19.56Zm19.84,7.43L227.42,269l44.84-25.84L472.93,359.79Zm-117.2-19.85c-3.47-5.95-3.47-12.37,0-14.35s9,1.23,12.48,7.17,3.46,12.36,0,14.36S359.17,397.45,355.73,391.51Zm46,26.46c-3.47-5.94-3.47-12.37,0-14.35s9,1.23,12.48,7.18,3.46,12.37,0,14.34-9-1.22-12.48-7.16Zm160.6,92.31c-3.47-5.93-3.47-12.36,0-14.34s9,1.23,12.47,7.18,3.47,12.36,0,14.34-9-1.22-12.47-7.16Zm-34.49-89.59V401l5.56,3.2,6.15,23.22Zm143.68,13.15c4.33,2.48,18.49,9.44,19,28.63l-13.2,7.6V452.81A33.93,33.93,0,0,0,671.56,433.84Z"/><path d="M742.52,944.37,719.28,888l-20.91-12c-.93-15.25-19.93-36.55-32.45-45.13l.14-.08-27.32-15.72L535.61,874.33V896.5l-40-23-41.07,23.57c-10.37-14.18-24.68-21.23-33.91-15.92L383,902.78c-10.38,6-10.38,25.32,0,43.23s27.25,27.57,37.63,21.61l11.22-6.45a59.57,59.57,0,0,0,6.69,16.73c10.4,17.9,27.25,27.57,37.63,21.61l12.07-6.93v7.75l134.56,77.28c-2.34-6.93-7.94-20.32,2.68-33.18l4.89,2.77c-8.47,7.14-7.84,25.16,1.88,41.9,10.39,17.9,27.23,27.58,37.63,21.61L685,1102v2.78l13,7.44L826,1038.67v-13.86l-13.74-7.89-10.11,5.81a18.19,18.19,0,0,0-.21-2.2,42,42,0,0,0-20.5-31.19l-38.93-21.2Z"/><path class="cls-5" d="M689.13,1095l6.75,3.78v7.6l-6.69-3.84Zm-73.41-26.11L492.41,998V968.09l129.38,74.3a31.91,31.91,0,0,0-6.07,26.45Zm101.43-20.44v5.73a41.07,41.07,0,0,0-16.73-18.19L661,1013.27v-19l37.05,21.29a37.85,37.85,0,0,1,19.06,32.84ZM539.79,879.18l20,11.45c12.62,7.08,33.44,30.86,33.44,44.61v1.21l21.72,12.47L636.75,1002v25.24s43,24.75,43.58,25.11c15.24,10.09,16.41,26.74,16.57,28.36l-157.11-90.2Z"/><path d="M597.71,943.81v33.27l24.91,14.29-10.36-39.25Z"/><path class="cls-3" d="M759,981.3A38.93,38.93,0,0,1,771,992l-56.7,32.58a42,42,0,0,0-14.1-13.17L663.07,990.1l55.55-31.88Zm-78.63,66.22-37.41-21.47,16-9.09,39.46,22.66a38.1,38.1,0,0,1,18.76,32.12L701.06,1081a42.06,42.06,0,0,0-20.73-33.45Zm43.8-109.34-79.19,45.51-12.69-30.82,79.2-45.48Zm-26.22,157-6.68-3.84,121-69.5,6.68,3.83ZM616.44,945.08l-17.1-9.81,96.94-55.67,17.15,9.83Zm41.2-114.32L560.7,886.43l-18.84-10.87,96.88-55.64Zm-146,123.82,23.93,13.76v19.78l-41.12-23.56Zm23.93,8.95-94.14-54.06,54.09-31.13,40.05,23ZM394.24,939.61c-4.18-7.17-4.18-14.91,0-17.29s10.89,1.48,15.05,8.64,4.19,14.9,0,17.3S398.4,946.77,394.24,939.61Zm55.54,31.88c-4.18-7.16-4.18-14.9,0-17.29s10.9,1.49,15.05,8.65,4.18,14.9,0,17.29-10.9-1.47-15.05-8.64Zm193.71,111.24c-4.18-7.15-4.18-14.9,0-17.28s10.9,1.48,15,8.65,4.18,14.9,0,17.28-10.89-1.47-15-8.63Zm-41.6-108V951.06l6.71,3.85,7.43,28ZM775.2,990.62c5.23,3,22.3,11.38,22.92,34.5l-15.93,9.15v-20.79A40.87,40.87,0,0,0,775.2,990.62Z"/><path d="M519.06,746.33l-365.75-210L50.1,595.52V714.07l12.78,7.33c-8.46,7.2-7.84,25.22,1.88,41.94C75.16,781.25,92,790.92,102.39,785l11.15-6.45a60.68,60.68,0,0,0,6.77,16.73c10.39,17.93,27.24,27.63,37.63,21.61l35.54-20.4,222.37,127.7,103.21-59.26Z"/><path class="cls-5" d="M54.28,711.67V600.33L240.75,707.41l173,99.35V918.1Z"/><path class="cls-3" d="M153.31,541.07,512.79,747.51l-96.94,55.68L56.37,596.74ZM76.05,756.83c-4.18-7.15-4.18-14.9,0-17.29s10.9,1.52,15,8.65,4.18,14.91,0,17.29S80.21,764,76.05,756.83Zm70.6,40.55c-4.18,2.38-10.9-1.49-15.05-8.65s-4.18-14.9,0-17.29,10.89,1.48,15.05,8.65S150.81,795,146.65,797.38Z"/><path d="M507.2,542.24l-10.55-6-9.16,5.23a34.05,34.05,0,0,0-5.06-15.89,34.65,34.65,0,0,0-12-11.69l-32.74-18.7V475.68l-18.79-45.23-17.33-9.89c-.75-12.8-17.92-32.27-29.26-38.59l-21-10.66-1.93,1.17a23.77,23.77,0,0,0-6.92-7.84S69.7,209.55,69.15,209.29c-22.58-11.6-37.54-16.57-58.93-4.64l-34.81,19.86c-21,12-37.16,24.78-37.16,70V297c0,11.28,3,20.45,8.31,26.26v10.28l10.54,6c-7.16,5.78-6.68,20.69,1.41,34.54,8.6,14.72,22.53,22.67,31.14,17.76l9.27-5.29A49,49,0,0,0,4.47,400.3C13.06,415,27,423,35.6,418.06l29.62-16.87,74.17,42.32c-7.15,5.78-6.68,20.69,1.41,34.54,8.61,14.72,22.54,22.67,31.14,17.76l9.34-5.29a49,49,0,0,0,5.53,13.75C195.4,519,209.35,526.93,217.94,522l29.58-16.88,19.8,11.28V545l71.61,40.86-1.3-3.85c-3.86-11.4.35-19.19,3.78-23.26l4.23,2.41c-7.15,5.78-6.68,20.69,1.42,34.55,8.59,14.72,22.53,22.66,31.13,17.76l12.68-7.16v2.3l10.55,6,105.85-60.35Z"/><path class="cls-5" d="M417.47,562.12v5.53A33.62,33.62,0,0,0,403.41,552l-32.74-18.68v-16L401.62,535a31.59,31.59,0,0,1,11.61,11.46A31.07,31.07,0,0,1,417.47,562.12ZM394,600.06l5.87,3.35v6.64L394,606.72ZM-50.29,331.73v-5.39L267.28,507.49v5.42ZM350.9,524v20.73s35.55,20.3,36,20.6l.63.44,1,.7.66.53a18.93,18.93,0,0,1,1.52,1.3l.8.75c.25.26.94,1,1.34,1.44a16.15,16.15,0,0,1,1.26,1.52,17.54,17.54,0,0,1,1.16,1.6c.37.57.65.95,1,1.67s.49.83,1,1.76c.32.61.61,1.22.87,1.86a20.25,20.25,0,0,1,.8,2l.19.54c.21.64.41,1.27.57,1.92l.13.5c.36,1.48.36,1.67.47,2.22a19.83,19.83,0,0,1,.29,2l.09.88L270.38,514.65V422.76l16.71,9.56c10.48,5.84,27.77,25.45,27.72,36.81V470l17.93,10.26Zm-17.26,55.31-63.31-36.09v-25l68.27,39a26.05,26.05,0,0,0-5,10.49A25.72,25.72,0,0,0,333.64,579.27Z"/><path d="M318.66,476.51v27L338.83,515l-8.5-31.84Z"/><path class="cls-3" d="M401.4,600.78l-5.88-3.36,101.13-57.69,5.88,3.35ZM13.38,206.4c21.48-11.41,34.87-6.06,81.87,20.74l234.85,134a31.06,31.06,0,0,0-14.53,4.46L304,372.17ZM452,506.83a32.31,32.31,0,0,1,10.13,8.94l-47.23,27a34.54,34.54,0,0,0-11.7-10.91l-31-17.64,46.31-26.42Zm-65.26,54.72-31.13-17.79L369.08,536l32.75,18.68A31.62,31.62,0,0,1,413.14,566a31.28,31.28,0,0,1,4.26,15.34l-13.62,7.77a34.08,34.08,0,0,0-5-15.9A34.65,34.65,0,0,0,386.72,561.55Zm84.22-10.7V533.42a33.1,33.1,0,0,0-6.23-19.3c2.53,1.45,19.22,8.6,19.72,29ZM357.05,510.39l-11.29-27.21,67.33-38.41L424.38,472ZM10.24,208.15,300.88,374l-18.55,10.58L-8.32,218.74ZM334,477.42l-14.53-8.28,80.56-45.95,14.53,8.28Zm34.25-94.07-80.41,45.86-16-9.1,79.53-45.34ZM-32.11,368.76c-3.44-5.89-3.44-12.25,0-14.21s9,1.22,12.46,7.1,3.43,12.25,0,14.2S-28.67,374.64-32.11,368.76Zm46,26.24c-3.45-5.89-3.45-12.25,0-14.21s9,1.21,12.45,7.1,3.44,12.31,0,14.21S17.26,400.85,13.85,395ZM150.1,472.72c-3.43-5.89-3.43-12.25,0-14.21s9,1.22,12.46,7.1,3.43,12.25,0,14.21S153.58,478.6,150.1,472.72ZM208.51,506c-3.44,2-9-1.22-12.45-7.1s-3.44-12.24,0-14.21,9,1.22,12.45,7.1,3.48,12.26,0,14.21Zm147.81,84.32c-3.43-5.89-3.43-12.24,0-14.21s9,1.22,12.46,7.1,3.43,12.31,0,14.22-9-1.22-12.41-7.11Zm-34.59-88.63V481.84l5.88,3.34,6.22,23.46Z"/><path class="cls-1" d="M-58.59,294.45c0-43.65,14.76-55.44,35.6-67.32l11.6-6.63L279.26,386.3,269.21,392c-21,12-37.15,24.79-37.15,70v2.43c0,8.89,1.85,16.48,5.27,22.16L-45.29,325.42c-2.54-1.45-13.35-6.62-13.35-28.53Z"/><polygon class="cls-6" points="198.44 15.96 215.43 25.86 215.43 103.71 198.44 93.81 198.44 15.96"/><polygon class="cls-6" points="337.45 96.18 354.43 106.07 354.43 183.77 337.45 173.88 337.45 96.18"/><polygon class="cls-6" points="158.7 -7.08 175.69 2.82 175.69 80.67 158.7 70.77 158.7 -7.08"/><polygon class="cls-6" points="178.5 4.44 195.63 14.34 195.63 92.19 178.65 82.29 178.5 4.44"/><polygon class="cls-6" points="218.24 27.34 235.22 37.24 235.22 114.94 218.24 105.04 218.24 27.34"/><polygon class="cls-6" points="238.18 38.86 255.17 48.76 255.17 126.46 238.18 116.56 238.18 38.86"/><polygon class="cls-6" points="257.97 50.38 274.96 60.13 274.96 137.83 257.97 128.08 257.97 50.38"/><polygon class="cls-6" points="277.91 61.76 294.9 71.66 294.9 149.5 277.91 139.61 277.91 61.76"/><polygon class="cls-6" points="297.71 73.28 314.7 83.18 314.7 160.88 297.71 151.13 297.71 73.28"/><polygon class="cls-6" points="317.65 84.65 334.64 94.55 334.64 172.4 317.65 162.5 317.65 84.65"/><polygon class="cls-6" points="357.39 107.7 374.38 117.45 374.38 195.3 357.39 185.4 357.39 107.7"/><polygon class="cls-6" points="376.74 119.22 393.73 129.12 393.73 206.82 376.74 197.07 376.74 119.22"/><polygon class="cls-6" points="396.53 130.74 413.52 140.64 413.52 218.49 396.53 208.59 396.53 130.74"/><path class="cls-5" d="M931.91,1337.59V1353c-17-1.66-17.16,10.45-17.16,15.61v20.55H898.21V1338.8h15.51v13C915.51,1345.73,919.36,1337.59,931.91,1337.59Z"/><path class="cls-5" d="M890.85,1362.77c0-16-9-25.18-25.18-25.18s-26.1,10.38-26.1,26.9c0,16.31,10.28,25.88,27.23,25.88,10.69,0,19.43-4.94,23.54-13.19l-12.13-5.44c-2.36,4.63-6.17,7-11.2,7-6.89,0-11.72-4.33-11.82-11.18h35.66Zm-35.66-4.23c.21-7.15,3.8-11.38,10.17-11.38,6.87,0,9.56,4.55,9.56,11.38Z"/><path class="cls-5" d="M761.62,1338.8h15.72l6.47,30.82c.21,1.41.52,3.12.72,4.84h.21a31,31,0,0,1,.82-4.84l7.5-30.82h14l7.5,30.82c.31,1.41.62,3.12.82,4.84h.21c.2-1.72.41-3.43.72-4.84l6.37-30.82h15.72l-13.67,50.36h-16l-7.5-28.5c-.31-1.41-.92-4.23-1-5.44H800c-.1,1.21-.72,4-1,5.44l-7.5,28.5h-16Z"/><path class="cls-5" d="M733.81,1337.59c-15.11,0-26.62,9-26.62,26.29s11.51,26.49,26.62,26.49,26.72-9.17,26.72-26.49S749,1337.59,733.81,1337.59Zm0,41.6c-6.37,0-10.17-5-10.17-15.31s3.8-15.11,10.17-15.11,10.28,4.74,10.28,15.11S740.29,1379.19,733.81,1379.19Z"/><path class="cls-5" d="M679.36,1317.65H647v71.51h17.37v-26h14.59c16.45,0,26.62-8.87,26.62-23.07C705.56,1326.52,695.18,1317.65,679.36,1317.65Zm-4.22,33.64H664.35v-21.35h10.79c7.81,0,12.23,3.93,12.23,10.68S682.85,1351.29,675.14,1351.29Z"/><path class="cls-5" d="M599.75,1338.8h9v-12.08l16.44-6.25v18.33h12.23v10.78H625.14v19.54c0,5,2.57,7.65,7.5,7.65a22.14,22.14,0,0,0,4.73-.5v12.79a47.69,47.69,0,0,1-9.36,1c-13.66,0-19.31-6-19.31-17.12v-23.37h-9Z"/><path class="cls-5" d="M545.61,1316.14h16.54v31.63c3.19-6.85,8.63-10.18,16.34-10.18,11.1,0,16.75,6.85,16.75,20.25v31.32H578.8v-29.71c0-6.35-2.57-9.57-7.6-9.57-5.86,0-9.05,4.33-9.05,12.19v27.09H545.61Z"/><path class="cls-5" d="M537.81,1341.12v-10.78a14.21,14.21,0,0,0-2.06-.1c-8.12,0-13.15,3.53-14.9,9.17a35.6,35.6,0,0,0-11.92-1.82c-14.49,0-23.43,6.65-23.43,16.82,0,5.85,2.88,10.48,7.91,13.5-5.85,2.11-9.25,6-9.25,11.48,0,4.33,2.37,7.66,7.09,9.47-5.85,1.81-8.83,5-8.83,9.06,0,7.15,8.11,12.09,25.28,12.09,19.32,0,29.59-7,29.59-18.43,0-9.57-6.47-14.71-19-14.71H503.89c-4.83,0-7-1.61-7-4.13a3,3,0,0,1,1.43-2.62,37.75,37.75,0,0,0,10.59,1.42c14.59,0,23.53-6.85,23.53-17.13a14.67,14.67,0,0,0-6-12C530.3,1339.63,536.26,1340.83,537.81,1341.12Zm-37.41,49.15,16.13.1c4.73,0,7,1.61,7,4.83,0,3.63-4.52,6-15.1,6-8.53,0-13.77-1.92-13.77-6.35a6.11,6.11,0,0,1,2.05-4.73C497.83,1390.17,499.06,1390.27,500.4,1390.27Zm8.53-27c-4.73,0-7.91-3.73-7.91-8.87s3.18-8.56,7.91-8.56,8,3.43,8,8.56S513.76,1363.28,508.93,1363.28Z"/><rect class="cls-5" x="459.74" y="1316.85" width="17.16" height="14.7"/><rect class="cls-5" x="460.05" y="1338.8" width="16.54" height="50.36"/><path class="cls-5" d="M453.1,1362.77c0-16-9-25.18-25.17-25.18s-26.11,10.38-26.11,26.9c0,16.31,10.28,25.88,27.24,25.88,10.69,0,19.42-4.94,23.53-13.19l-12.13-5.44c-2.36,4.63-6.16,7-11.2,7-6.88,0-11.71-4.33-11.81-11.18H453.1Zm-35.65-4.23c.2-7.15,3.8-11.38,10.17-11.38,6.86,0,9.56,4.55,9.56,11.38Z"/><path class="cls-5" d="M398.54,1337.59V1353c-17-1.66-17.16,10.45-17.16,15.61v20.55H364.84V1338.8h15.51v13C382.14,1345.73,386,1337.59,398.54,1337.59Z"/><polygon class="cls-5" points="325.93 1330.54 325.93 1347.06 356.66 1347.06 356.66 1359.75 325.93 1359.75 325.93 1389.16 308.56 1389.16 308.56 1317.65 358.51 1317.65 358.51 1330.54 325.93 1330.54"/><path class="cls-6" d="M785.29,1247.23v15.41c-17-1.66-17.16,10.45-17.16,15.62v20.54H751.58v-50.36H767.1v13C768.89,1255.37,772.74,1247.23,785.29,1247.23Z"/><path class="cls-6" d="M743.23,1272.41c0-16-9-25.18-25.17-25.18S692,1257.61,692,1274.13c0,16.31,10.28,25.88,27.24,25.88,10.68,0,19.42-4.93,23.53-13.19l-12.13-5.44c-2.36,4.63-6.16,7-11.2,7-6.88,0-11.71-4.33-11.82-11.18h35.66Zm-35.66-4.23c.21-7.15,3.81-11.38,10.18-11.38,6.86,0,9.55,4.55,9.55,11.38Z"/><path class="cls-6" d="M667.63,1225.78v29.41c-2.56-5.24-7.7-8-14.49-8-12.84,0-21.47,10.58-21.47,26.59,0,15.72,8.22,26.19,20.55,26.19,7.5,0,13.67-3.83,16.24-9.87v8.66h15.62v-73Zm-8.94,63c-6.26,0-10.07-5.84-10.07-15.31,0-9.67,3.6-15.11,9.87-15.11,7.39,0,9.35,6.54,9.35,15.46C667.84,1281.38,666.26,1288.83,658.69,1288.83Z"/><rect class="cls-6" x="605.57" y="1226.49" width="17.16" height="14.7"/><rect class="cls-6" x="605.88" y="1248.44" width="16.54" height="50.36"/><path class="cls-6" d="M596.54,1272.41c0-16-9-25.18-25.18-25.18s-26.1,10.38-26.1,26.9c0,16.31,10.27,25.88,27.23,25.88,10.69,0,19.42-4.93,23.53-13.19l-12.12-5.44c-2.37,4.63-6.17,7-11.21,7-6.88,0-11.71-4.33-11.81-11.18h35.66Zm-35.66-4.23c.2-7.15,3.8-11.38,10.17-11.38,6.86,0,9.56,4.55,9.56,11.38Z"/><path class="cls-6" d="M487.51,1248.44h15.83v9.67c3.59-7.35,9.25-10.88,17.06-10.88,11.1,0,16.75,7,16.75,20.35v31.22H520.71v-29c0-7-2.47-10.28-7.71-10.28-5.76,0-8.94,4.33-8.94,12.09v27.19H487.51Z"/><path class="cls-6" d="M427.64,1225.78h16.55v31.63c3.18-6.85,8.63-10.18,16.34-10.18,11.1,0,16.75,6.85,16.75,20.25v31.32H460.84v-29.71c0-6.34-2.57-9.57-7.61-9.57-5.86,0-9,4.33-9,12.19v27.09H427.64Z"/><path class="cls-6" d="M368.12,1273.62c0-16.41,10.38-26.39,27.23-26.39,13.46,0,22.4,6.45,24.35,17.83l-15.51,3.12c-.93-5.94-4.22-9.06-9.25-9.06-6.27,0-10.07,5.24-10.07,14,0,9.47,3.7,14.91,10.17,14.91,5.14,0,8.33-3.33,9.25-9.37L419.7,1282c-1.84,11.08-11.4,18-24.56,18C378.91,1300,368.12,1289.64,368.12,1273.62Z"/><path class="cls-6" d="M300.92,1283.9l12.85-8.87c3.8,7.36,10.17,12.29,19.83,12.29,7,0,12.54-2.52,12.54-8.16,0-6.74-4.83-7.67-15.47-9.87-6.21-1.28-25-3.41-25-22.46,0-13.09,10.89-21.25,28.46-21.25,12.95,0,23.84,4.63,29,14.2l-11.3,9.37c-3.7-7-10.48-11-18.81-11-6.88,0-11.3,2.82-11.3,7.35,0,6.27,5.12,7.52,15.88,9.77,11.12,2.33,25.22,4.85,25.22,22.26,0,13.6-10.68,23-29.8,23C317.26,1300.52,306,1294,300.92,1283.9Z"/><path class="cls-5" d="M946.81,1323.31a7,7,0,1,0,6.93,7A6.71,6.71,0,0,0,946.81,1323.31Zm0,12.81a5.85,5.85,0,1,1,5.66-5.85A5.58,5.58,0,0,1,946.81,1336.12Z"/><path class="cls-5" d="M948.57,1330.88a2.13,2.13,0,0,0,1.51-2.07c0-1.53-1-2.41-2.82-2.41H944v7.6h1.91v-2.89h.84l1.51,2.89h2.1Zm-1.67-1.08h-1v-2h1c.81,0,1.22.34,1.22,1S947.67,1329.8,946.9,1329.8Z"/></svg>