<svg xmlns="http://www.w3.org/2000/svg" width="18.25" height="18.25" viewBox="0 0 18.25 18.25"><defs><style>.a{fill:#ff6418;stroke:#ff6418;stroke-width:0.25px;}</style></defs><g transform="translate(-60.875 -557.875)"><path class="a" d="M73.656,562.758H72.25a.7.7,0,0,0-.7.7v7.347a.7.7,0,0,1-.7.7H68.7v.023a1.406,1.406,0,1,0,0,1.36v.022h2.145a2.112,2.112,0,0,0,2.109-2.109v-.035h.7a2.816,2.816,0,0,0,2.813-2.812V565.57A2.816,2.816,0,0,0,73.656,562.758Zm1.406,5.2a1.408,1.408,0,0,1-1.406,1.406h-.7v-5.2h.7a1.409,1.409,0,0,1,1.406,1.407Z" transform="translate(2.531 2.379)"/><path class="a" d="M65.219,565.137H63.829a6.189,6.189,0,0,1,11.976-1.69.7.7,0,0,0,1.319-.487,7.595,7.595,0,0,0-14.717,2.556A2.812,2.812,0,0,0,61,567.949v2.391a2.816,2.816,0,0,0,2.813,2.813h1.406a.7.7,0,0,0,.7-.7V565.84A.7.7,0,0,0,65.219,565.137Zm-.7,6.609h-.7a1.408,1.408,0,0,1-1.406-1.406v-2.391a1.409,1.409,0,0,1,1.406-1.407h.7Z"/><path class="a" d="M73.656,562.758H72.25a.7.7,0,0,0-.7.7v7.347a.7.7,0,0,1-.7.7H68.7v.023a1.406,1.406,0,1,0,0,1.36v.022h2.145a2.112,2.112,0,0,0,2.109-2.109v-.035h.7a2.816,2.816,0,0,0,2.813-2.812V565.57A2.816,2.816,0,0,0,73.656,562.758Zm1.406,5.2a1.408,1.408,0,0,1-1.406,1.406h-.7v-5.2h.7a1.409,1.409,0,0,1,1.406,1.407Z" transform="translate(2.531 2.379)"/></g></svg>