<svg xmlns="http://www.w3.org/2000/svg" width="36" height="36" viewBox="0 0 36 36"><defs><style>.a{fill:#ff6418;}.b{fill:#fff;}</style></defs><g transform="translate(-15.5 -70.5)"><circle class="a" cx="18" cy="18" r="18" transform="translate(15.5 70.5)"/><g transform="translate(-53.098 75.5)"><path class="b" d="M95.133,6.657,93.428,5.229l-.388-2.191a1.519,1.519,0,0,0-1.5-1.256h0l-2.225,0L87.609.356a1.519,1.519,0,0,0-1.956,0l-1.7,1.432-2.225,0a1.52,1.52,0,0,0-1.5,1.259l-.384,2.191-1.7,1.432A1.519,1.519,0,0,0,77.8,8.6l1.114,1.926-.384,2.191a1.519,1.519,0,0,0,.98,1.693l1.876.681.007,9.34a1.521,1.521,0,0,0,2.389,1.25l2.835-1.968,2.835,1.968a1.522,1.522,0,0,0,2.389-1.25V15.1l1.931-.7a1.52,1.52,0,0,0,.977-1.7l-.388-2.191,1.111-1.928a1.519,1.519,0,0,0-.341-1.926Zm-8.079,15.5a.761.761,0,0,0-.868,0L82.917,24.43h0l-.005-7.071a1.518,1.518,0,0,0,1.645.4L86.647,17l2.091.759a1.52,1.52,0,0,0,1.585-.344V24.43Zm5.991-12.41a1.524,1.524,0,0,0-.18,1.025l.388,2.191-2.09.763a1.524,1.524,0,0,0-.664.478l-.024.031a1.508,1.508,0,0,0-.109.161l-1.11,1.928h0l-2.091-.759a1.524,1.524,0,0,0-1.041,0l-2.09.763-1.114-1.926a1.519,1.519,0,0,0-.214-.284l-.022-.024a1.524,1.524,0,0,0-.562-.361l-2.091-.759.384-2.191a1.524,1.524,0,0,0-.182-1.025L79.12,7.838l1.7-1.432a1.524,1.524,0,0,0,.52-.9l.384-2.191,2.225,0a1.524,1.524,0,0,0,.978-.357l1.7-1.432,1.705,1.428a1.524,1.524,0,0,0,.977.355h0l2.225,0,.388,2.191a1.524,1.524,0,0,0,.521.9l1.706,1.428Z" transform="translate(0 0)"/><path class="b" d="M173.712,93.29a4.387,4.387,0,1,0,4.387,4.387A4.392,4.392,0,0,0,173.712,93.29Zm0,7.253a2.866,2.866,0,1,1,2.866-2.866A2.869,2.869,0,0,1,173.712,100.543Z" transform="translate(-87.075 -88.558)"/></g></g></svg>