<svg xmlns="http://www.w3.org/2000/svg" width="43.611" height="57.115" viewBox="0 0 43.611 57.115"><defs><style>.a{fill:#fff;}.a,.b{stroke:#000;stroke-linecap:round;stroke-linejoin:round;stroke-width:1.5px;}.b{fill:#ff6418;}</style></defs><g transform="translate(-6065.194 -111.439)"><path class="a" d="M117.561,121.054H80.944V167.8h36.617Z" transform="translate(5985)"/><path class="b" d="M107.331,117.023a3.233,3.233,0,0,1-3.028-1.792,5.713,5.713,0,0,0-10.1,0,3.234,3.234,0,0,1-3.028,1.792,3.738,3.738,0,0,0-3.934,3.494v5.416h24.026v-5.416A3.73,3.73,0,0,0,107.331,117.023Z" transform="translate(5985)"/><path class="b" d="M85.616,143.061l4.9-4.9,9.234,8.541,18.429-17.807,4.872,4.872-23.3,22.33Z" transform="translate(5985)"/></g></svg>