<svg xmlns="http://www.w3.org/2000/svg" width="22.291" height="22.291" viewBox="0 0 22.291 22.291"><defs><style>.a,.d{fill:none;}.a,.b{stroke:#fff;}.a{stroke-width:1.5px;}.b{fill:#fff;stroke-width:0.75px;}.c{stroke:none;}</style></defs><g transform="matrix(0.391, -0.921, 0.921, 0.391, -61.586, 109.55)"><g class="a" transform="translate(110.5 20)"><circle class="c" cx="8.5" cy="8.5" r="8.5"/><circle class="d" cx="8.5" cy="8.5" r="7.75"/></g><path class="b" d="M153.812,171.171a.507.507,0,0,0-.717,0l-4.512,4.512-2.347-2.347a.507.507,0,0,0-.717.717l2.706,2.706a.507.507,0,0,0,.717,0l4.87-4.87A.507.507,0,0,0,153.812,171.171Z" transform="matrix(0.391, 0.921, -0.921, 0.391, 220.792, -176.92)"/></g></svg>