<svg xmlns="http://www.w3.org/2000/svg" width="51.979" height="52.031" viewBox="0 0 51.979 52.031"><defs><style>.a{fill:#fff;}.a,.b,.c{stroke:#000;stroke-linecap:round;stroke-linejoin:round;stroke-width:1.5px;}.b{fill:#ff6418;}.c{fill:none;}</style></defs><g transform="translate(-6233.01 -114.015)"><path class="a" d="M274,114.765a25.152,25.152,0,0,0-20.519,10.605H261.3a19.322,19.322,0,0,1,25.391,0h7.823A25.159,25.159,0,0,0,274,114.765Z" transform="translate(5985)"/><path class="b" d="M274,145.9a5.9,5.9,0,1,0-5.9-5.9A5.9,5.9,0,0,0,274,145.9Z" transform="translate(5985)"/><path class="c" d="M279.616,141.8l13.588-4.529a19.561,19.561,0,0,0-.821-3.494l-14.08,2.18A5.9,5.9,0,0,1,279.9,140a5.735,5.735,0,0,1-.285,1.8Z" transform="translate(5985)"/><path class="c" d="M255.63,133.808a19.56,19.56,0,0,0-.821,3.494l13.588,4.529a5.757,5.757,0,0,1-.3-1.831,5.893,5.893,0,0,1,1.6-4.038Z" transform="translate(5985)"/><path class="c" d="M275.715,159.185l1.184-14.047a5.885,5.885,0,0,1-5.824,0l1.184,14.047Z" transform="translate(5985)"/><path class="b" d="M293.412,140A19.412,19.412,0,1,1,261.3,125.37h-7.823a25.235,25.235,0,1,0,41.036,0H286.7A19.332,19.332,0,0,1,293.412,140Z" transform="translate(5985)"/></g></svg>