<svg xmlns="http://www.w3.org/2000/svg" width="38" height="38" viewBox="0 0 38 38"><defs><style>.a{fill:#ff6418;}.b{fill:none;}.c,.e{fill:#fff;}.d,.e{stroke:none;}</style></defs><g transform="translate(-21 -14.5)"><circle class="a" cx="19" cy="19" r="19" transform="translate(21 14.5)"/><g class="b" transform="translate(28.793 20.846)"><path class="d" d="M10.731,1.478a.877.877,0,0,1,1.528,0L22.162,19a.877.877,0,0,1-.764,1.309H1.591A.877.877,0,0,1,.827,19Z"/><path class="e" d="M 11.4946346282959 4.191041946411133 L 3.515081405639648 18.3087100982666 L 19.47418785095215 18.3087100982666 L 11.4946346282959 4.191041946411133 M 11.49463653564453 1.032283782958984 C 11.79261684417725 1.032283782958984 12.09059619903564 1.180854797363281 12.25854682922363 1.478000640869141 L 22.16196632385254 18.99944114685059 C 22.49259567260742 19.58440017700195 22.06998634338379 20.3087100982666 21.39806747436523 20.3087100982666 L 1.591205596923828 20.3087100982666 C 0.9192771911621094 20.3087100982666 0.4966773986816406 19.58440017700195 0.8272972106933594 18.99945068359375 L 10.73072624206543 1.478000640869141 C 10.89867687225342 1.180854797363281 11.19665622711182 1.032283782958984 11.49463653564453 1.032283782958984 Z"/></g><g transform="translate(1.206 0.685)"><path class="c" d="M38.856,35.314c-.324-.047-.512.094-.674-1.141s-.526-4.095-.526-4.095-.027-.547.984-.563a5.439,5.439,0,1,1,.566,0s1.08-.158.809,1.016-.58,3.766-.58,3.766S39.18,35.361,38.856,35.314Z" transform="translate(0.344 -1)"/><ellipse class="c" cx="1.5" cy="1" rx="1.5" ry="1" transform="translate(37.794 35.815)"/></g></g></svg>