<svg xmlns="http://www.w3.org/2000/svg" width="229.25" height="204" viewBox="0 0 229.25 204"><defs><style>.a{fill:rgba(255,255,255,0.25);stroke:#acacac;stroke-dasharray:3;}.a,.e,.f,.g{stroke-linecap:round;}.b{fill:#e9e5e1;}.c{fill:#acacac;}.d,.f{fill:#efece9;}.e{fill:#ff6418;}.e,.f,.g{stroke:#000;stroke-linejoin:round;stroke-width:2px;}.g,.i{fill:none;}.h{stroke:none;}</style></defs><g transform="translate(-67.75 -275)"><g class="a" transform="translate(86 275)"><circle class="h" cx="102" cy="102" r="102"/><circle class="i" cx="102" cy="102" r="101.5"/></g><g transform="translate(168.201 362.236)"><rect class="b" width="5" height="36" transform="translate(118.799 -4.236)"/><g transform="translate(116.713 1.576)"><g transform="translate(0)"><path class="c" d="M210.581,25.6h-5.255a.525.525,0,1,0,0,1.051h5.255a.525.525,0,1,0,0-1.051Z" transform="translate(-204.801 -25.6)"/></g></g><g transform="translate(125.121 1.576)"><g transform="translate(0)"><path class="c" d="M342.385,25.6h-.525a.525.525,0,0,0,0,1.051h.525a.525.525,0,1,0,0-1.051Z" transform="translate(-341.334 -25.6)"/></g></g><g transform="translate(117.764 26.799)"><g transform="translate(0)"><path class="c" d="M224.621,435.2h-1.3a1.452,1.452,0,0,0-1.45,1.45v.254a1.451,1.451,0,0,0,1.449,1.449h1.3a1.451,1.451,0,0,0,1.45-1.449v-.254A1.451,1.451,0,0,0,224.621,435.2Zm.4,1.7a.4.4,0,0,1-.4.4h-1.3a.4.4,0,0,1-.4-.4v-.254a.4.4,0,0,1,.4-.4h1.3a.4.4,0,0,1,.4.4Z" transform="translate(-221.867 -435.2)"/></g></g><g transform="translate(110.933)"><g transform="translate(0)"><path class="c" d="M126.9,0H112.833a1.9,1.9,0,0,0-1.9,1.9V29.629a1.9,1.9,0,0,0,1.9,1.9H126.9a1.9,1.9,0,0,0,1.9-1.9V1.9A1.9,1.9,0,0,0,126.9,0Zm.848,29.629a.849.849,0,0,1-.848.849H112.833a.85.85,0,0,1-.849-.848V1.9a.85.85,0,0,1,.849-.849H126.9a.85.85,0,0,1,.849.849V29.629Z" transform="translate(-110.933)"/></g></g><g transform="translate(110.933 3.153)"><g transform="translate(0)"><path class="c" d="M128.274,51.2H111.459a.526.526,0,0,0-.525.525V73.8a.526.526,0,0,0,.525.525h16.815a.526.526,0,0,0,.525-.525V51.725A.526.526,0,0,0,128.274,51.2Zm-.525,22.07H111.985V52.251h15.764Z" transform="translate(-110.934 -51.2)"/></g></g><rect class="d" width="14" height="20" transform="translate(112.799 4.764)"/></g><g transform="translate(67.75 280.167)"><rect class="b" width="8" height="32" transform="translate(13.25 80.833)"/><g transform="translate(0 84.333)"><path class="c" d="M36.719,105.646H34.375V88.458a3.128,3.128,0,0,0-3.125-3.125h-25a3.128,3.128,0,0,0-3.125,3.125v17.188H.781a.781.781,0,0,0-.781.781v.781a3.128,3.128,0,0,0,3.125,3.125h31.25a3.128,3.128,0,0,0,3.125-3.125v-.781A.781.781,0,0,0,36.719,105.646ZM4.688,88.458A1.565,1.565,0,0,1,6.25,86.9h25a1.565,1.565,0,0,1,1.562,1.562v17.188H4.688Zm29.687,20.312H3.125a1.565,1.565,0,0,1-1.562-1.562H14.52l.552.552a.781.781,0,0,0,.552.229h6.25a.781.781,0,0,0,.552-.229l.552-.552H35.938A1.565,1.565,0,0,1,34.375,108.771Z" transform="translate(0 -85.333)"/></g><rect class="d" width="27" height="17" transform="translate(5.25 86.833)"/></g><g transform="translate(-5914.811 70.301)"><path class="e" d="M127.955,282.212H70.779v31.763h57.176Z" transform="translate(5989.222)"/><path class="f" d="M108.266,321.224a6.429,6.429,0,1,0-6.428-6.429A6.429,6.429,0,0,0,108.266,321.224Z" transform="translate(6000.548 9.538)"/><path class="f" d="M77.679,321.224a6.429,6.429,0,1,0-6.428-6.429A6.429,6.429,0,0,0,77.679,321.224Z" transform="translate(5989.394 9.538)"/><path class="f" d="M97.518,321.224A6.429,6.429,0,1,0,91.09,314.8,6.429,6.429,0,0,0,97.518,321.224Z" transform="translate(5996.628 9.538)"/><path class="g" d="M115.82,313.025h-4.16" transform="translate(6004.13 11.237)"/><path class="g" d="M71.09,308.366h59.525" transform="translate(5989.335 9.538)"/><path class="f" d="M133.7,290.081l8.1,14.905" transform="translate(6012.167 2.87)"/><path class="f" d="M117.685,324.146h37v-15.62L132,306V292.835s-6.71-10.306-14.313-10.306Z" transform="translate(6006.328 0.116)"/><path class="f" d="M133.083,305.985H114.708v9.607h18.375Z" transform="translate(6005.242 8.67)"/><path class="g" d="M59.2,287.046h47.066" transform="translate(5985 1.763)"/><path class="g" d="M60.918,293.846h44.725" transform="translate(5985.625 4.243)"/><path class="g" d="M64.632,300.647h39.657" transform="translate(5986.98 6.723)"/><path class="f" d="M138.438,321.224a6.429,6.429,0,1,0-6.428-6.429A6.429,6.429,0,0,0,138.438,321.224Z" transform="translate(6011.552 9.538)"/><path d="M139.881,313.743a2.5,2.5,0,1,1-.731-1.758A2.5,2.5,0,0,1,139.881,313.743Z" transform="translate(6012.599 10.59)"/><path d="M109.714,313.743a1.04,1.04,0,1,0-.026,0" transform="translate(6001.598 10.59)"/><path d="M98.961,313.743a2.5,2.5,0,1,1-.732-1.758A2.5,2.5,0,0,1,98.961,313.743Z" transform="translate(5997.676 10.59)"/><path d="M79.122,313.743a2.5,2.5,0,1,1-.732-1.758A2.5,2.5,0,0,1,79.122,313.743Z" transform="translate(5990.441 10.59)"/><path class="g" d="M128.18,290.081H138.9" transform="translate(6010.155 2.87)"/></g></g></svg>