<svg xmlns="http://www.w3.org/2000/svg" width="239.84" height="70.041" viewBox="0 0 239.84 70.041"><defs><style>.a{fill:#4c4c4c;}.b{fill:#ff6418;}</style></defs><g transform="translate(-24.16 -284)"><path class="a" d="M264,326.542V332.4c-6.446-.634-6.514,3.97-6.514,5.933v7.8H251.2V327h5.895v4.936C257.773,329.637,259.237,326.542,264,326.542Zm-15.6,11.406H234.811a4.175,4.175,0,0,0,4.529,4.25,4.533,4.533,0,0,0,4.257-2.68l4.6,2.068c-1.562,3.14-4.876,5.012-8.937,5.012-6.446,0-10.349-3.631-10.349-9.813s3.827-10.22,9.919-10.22,9.564,3.487,9.564,9.571Zm-9.685-7.767c-2.415,0-3.774,1.607-3.865,4.325h7.5C242.344,331.909,241.325,330.181,238.713,330.181ZM199.288,327h5.979l2.46,11.715c.076.536.2,1.185.272,1.834h.075a12.364,12.364,0,0,1,.318-1.834L211.237,327h5.284l2.853,11.715c.114.536.234,1.185.31,1.834h.075c.083-.649.159-1.3.28-1.834L222.454,327h5.978l-5.193,19.135h-6.091l-2.854-10.825c-.113-.535-.347-1.607-.392-2.068h-.076c-.037.461-.271,1.51-.392,2.068l-2.846,10.825H204.5Zm-20.675,9.533c0-6.582,4.371-9.994,10.115-9.994s10.153,3.412,10.153,9.994S194.5,346.6,188.728,346.6,178.613,343.118,178.613,336.536Zm14.018,0c0-3.94-1.45-5.744-3.9-5.744s-3.872,1.8-3.872,5.744,1.449,5.82,3.872,5.82S192.631,340.439,192.631,336.536Zm-14.644-9.058c0,5.4-3.865,8.764-10.115,8.764h-5.54v9.873h-6.6V318.941h12.3c6.016.023,9.994,3.4,9.994,8.56Zm-6.907.2c0-2.567-1.683-4.061-4.65-4.061h-4.1v8.137h4.1c2.929,0,4.65-1.495,4.65-4.054Zm-33.295-.695h3.4v-4.567l6.25-2.408v6.968h4.643V331.1h-4.643v7.42c0,1.918.974,2.914,2.846,2.914a7.881,7.881,0,0,0,1.8-.2V346.1a17.864,17.864,0,0,1-3.556.385c-5.193,0-7.337-2.265-7.337-6.507V331.1h-3.4Zm-20.577-8.59H123.5v12.025a6.293,6.293,0,0,1,6.219-3.873c4.22,0,6.371,2.6,6.371,7.7v11.9h-6.25V334.815c0-2.415-.973-3.638-2.891-3.638-2.226,0-3.434,1.646-3.434,4.635V346.1h-6.288Zm-7.262,9.994a5.569,5.569,0,0,1,2.265,4.529c0,3.9-3.4,6.507-8.945,6.507a14.27,14.27,0,0,1-4.015-.536,1.147,1.147,0,0,0-.551,1c0,.959.823,1.57,2.657,1.57h5.465c4.763,0,7.224,1.948,7.224,5.586,0,4.363-3.9,7-11.247,7-6.521,0-9.6-1.872-9.6-4.59,0-1.509,1.132-2.762,3.359-3.449a3.712,3.712,0,0,1-2.695-3.593c0-2.068,1.283-3.563,3.51-4.363a5.806,5.806,0,0,1-3.019-5.133c0-3.865,3.4-6.393,8.9-6.393a13.58,13.58,0,0,1,4.529.694c.657-2.144,2.574-3.487,5.661-3.487a5.281,5.281,0,0,1,.755.038v4.1C113.653,327.78,111.388,327.32,109.946,328.384Zm-9.918,18.176c-.506,0-.974-.037-1.4-.075a2.317,2.317,0,0,0-.755,1.8c0,1.684,1.993,2.416,5.239,2.416,4.015,0,5.736-.883,5.736-2.265,0-1.23-.86-1.841-2.657-1.841Zm6.288-13.624a3.028,3.028,0,1,0-6.039,0A3.067,3.067,0,0,0,103.3,336.3C105.108,336.3,106.316,334.928,106.316,332.936ZM84.577,318.662H91.1v5.586H84.577Zm.121,8.3h6.288V346.1H84.7ZM82.055,337.91H68.468c0,2.6,1.872,4.25,4.529,4.25a4.531,4.531,0,0,0,4.257-2.68l4.6,2.068c-1.562,3.14-4.876,5.012-8.945,5.012-6.439,0-10.349-3.63-10.349-9.812s3.827-10.221,9.926-10.221,9.564,3.488,9.564,9.571Zm-9.707-7.729c-2.423,0-3.774,1.607-3.865,4.325h7.5C76,331.909,74.975,330.181,72.348,330.181ZM61.32,326.542V332.4c-6.446-.634-6.522,3.97-6.522,5.933v7.8H48.511V327h5.9v4.936C55.093,329.637,56.557,326.542,61.32,326.542Zm-27.589-2.679v6.28H45.408v4.823H33.731v11.172h-6.6V318.964H46.11v4.9Z"/><path class="b" d="M208.535,286.106h-1.027v-.687h2.929v.687h-1.079v2.71h-.823Zm2.264-.687h1.193l.612,2.038a3.056,3.056,0,0,1,.083.521,2.36,2.36,0,0,1,.083-.521l.6-2.038h1.17v3.4h-.754v-2.023a7.313,7.313,0,0,1,0-.755,4.684,4.684,0,0,1-.159.619L213,288.763h-.7l-.627-2.106a5.939,5.939,0,0,1-.151-.619v2.748h-.755Zm-2.574,6.794v5.85c-6.453-.627-6.521,3.97-6.521,5.932v7.813h-6.318V292.665h5.9V297.6c.71-2.3,2.174-5.389,6.937-5.389Zm-15.979,11.4H178.659a4.18,4.18,0,0,0,4.529,4.242,4.527,4.527,0,0,0,4.257-2.679l4.612,2.068c-1.562,3.14-4.884,5.012-8.945,5.012-6.446,0-10.348-3.631-10.348-9.813s3.827-10.213,9.918-10.213,9.571,3.48,9.571,9.564Zm-9.692-7.767c-2.416,0-3.774,1.608-3.865,4.325h7.5C186.192,297.572,185.165,295.851,182.554,295.851Zm-32.707,6.469c0-6.084,3.283-10.1,8.16-10.1,2.581,0,4.529,1.027,5.51,3.019V284.06h6.242v27.748h-5.933v-3.291a6.451,6.451,0,0,1-6.167,3.774c-4.687-.03-7.812-4.008-7.812-9.979Zm13.745,0c0-3.389-.755-5.88-3.555-5.88-2.378,0-3.774,2.068-3.774,5.744s1.442,5.82,3.827,5.82c2.906.015,3.5-2.823,3.5-5.669Zm-23.664-17.995h6.522v5.585h-6.522Zm.121,8.34h6.273v19.143h-6.288Zm-3.54,10.953H122.922a4.166,4.166,0,0,0,4.491,4.242,4.53,4.53,0,0,0,4.258-2.679l4.612,2.068c-1.563,3.14-4.884,5.012-8.945,5.012-6.446,0-10.349-3.631-10.349-9.813s3.827-10.213,9.919-10.213,9.6,3.457,9.6,9.541Zm-9.7-7.767c-2.415,0-3.774,1.608-3.864,4.325h7.525C130.47,297.572,129.421,295.851,126.809,295.851Zm-31.74-3.186h6.038v3.676a6.717,6.717,0,0,1,6.477-4.128c4.219,0,6.371,2.634,6.371,7.729v11.866h-6.25V300.78c0-2.642-.936-3.9-2.929-3.9-2.189,0-3.4,1.646-3.4,4.6v10.334h-6.31Zm-22.72-8.605h6.288v12.017a6.294,6.294,0,0,1,6.2-3.864c4.22,0,6.371,2.6,6.371,7.691v11.9h-6.25V300.486c0-2.416-.974-3.639-2.891-3.639-2.265,0-3.435,1.646-3.435,4.635v10.326H72.348ZM49.7,302.237c0-6.243,3.948-10.024,10.349-10.024,5.118,0,8.515,2.445,9.254,6.793l-5.9,1.185c-.347-2.264-1.6-3.442-3.51-3.442-2.385,0-3.834,1.993-3.834,5.322,0,3.593,1.411,5.661,3.872,5.661,1.947,0,3.163-1.261,3.51-3.563l5.88,1.246c-.7,4.212-4.333,6.846-9.33,6.846C53.795,312.261,49.7,308.321,49.7,302.237Zm-25.543,3.9,4.884-3.366a8.047,8.047,0,0,0,7.548,4.672c2.65,0,4.763-.959,4.763-3.1,0-2.559-1.842-2.922-5.88-3.774-2.378-.468-9.518-1.276-9.518-8.492C25.956,287.1,30.1,284,36.773,284c4.921,0,9.058,1.766,11.013,5.4l-4.3,3.563a7.79,7.79,0,0,0-7.141-4.174c-2.619,0-4.3,1.071-4.3,2.793,0,2.385,1.947,2.86,6.039,3.713,4.227.883,9.586,1.842,9.586,8.462,0,5.163-4.061,8.726-11.323,8.726C30.372,312.457,26.077,309.966,24.16,306.139Z"/></g></svg>