<svg xmlns="http://www.w3.org/2000/svg" width="340.574" height="303.062" viewBox="0 0 340.574 303.062"><defs><style>.a{fill:rgba(255,255,255,0.25);stroke:#acacac;stroke-dasharray:3;}.a,.e,.f,.g{stroke-linecap:round;}.b{fill:#e9e5e1;}.c{fill:#acacac;}.d,.f{fill:#efece9;}.e{fill:#ff6418;}.e,.f,.g{stroke:#000;stroke-linejoin:round;stroke-width:2px;}.g,.i{fill:none;}.h{stroke:none;}</style></defs><g transform="translate(-14.75 -255.469)"><g transform="translate(-55 -39.531)"><g class="a" transform="translate(96.411 295)"><circle class="h" cx="151.531" cy="151.531" r="151.531"/><circle class="i" cx="151.531" cy="151.531" r="151.031"/></g><g transform="translate(383.782 418.305)"><rect class="b" width="7.428" height="53.482" transform="translate(11.686 0)"/><g transform="translate(8.587 8.635)"><g transform="translate(0)"><path class="c" d="M213.388,25.6h-7.806a.781.781,0,1,0,0,1.561h7.806a.781.781,0,1,0,0-1.561Z" transform="translate(-204.801 -25.6)"/></g></g><g transform="translate(21.077 8.635)"><g transform="translate(0)"><path class="c" d="M342.9,25.6h-.781a.781.781,0,0,0,0,1.561h.781a.781.781,0,1,0,0-1.561Z" transform="translate(-341.334 -25.6)"/></g></g><g transform="translate(10.148 46.105)"><g transform="translate(0)"><path class="c" d="M225.959,435.2h-1.938a2.157,2.157,0,0,0-2.154,2.154v.377a2.156,2.156,0,0,0,2.153,2.153h1.938a2.156,2.156,0,0,0,2.154-2.153v-.377A2.156,2.156,0,0,0,225.959,435.2Zm.592,2.531a.592.592,0,0,1-.592.592h-1.938a.593.593,0,0,1-.593-.592v-.377a.593.593,0,0,1,.593-.593h1.938a.593.593,0,0,1,.593.593Z" transform="translate(-221.867 -435.2)"/></g></g><g transform="translate(0 6.293)"><path class="c" d="M134.653,0h-20.9a2.826,2.826,0,0,0-2.822,2.822V44.016a2.825,2.825,0,0,0,2.822,2.822h20.9a2.825,2.825,0,0,0,2.822-2.821V2.822A2.825,2.825,0,0,0,134.653,0Zm1.26,44.016a1.262,1.262,0,0,1-1.26,1.261h-20.9a1.262,1.262,0,0,1-1.261-1.26V2.822a1.262,1.262,0,0,1,1.261-1.261h20.9a1.262,1.262,0,0,1,1.261,1.261V44.016Z" transform="translate(-110.933)"/></g><g transform="translate(0 10.977)"><g transform="translate(0)"><path class="c" d="M136.695,51.2h-24.98a.781.781,0,0,0-.781.781V84.767a.781.781,0,0,0,.781.781H136.7a.781.781,0,0,0,.781-.781V51.981A.781.781,0,0,0,136.695,51.2Zm-.781,32.787H112.5V52.761h23.419Z" transform="translate(-110.934 -51.2)"/></g></g><rect class="d" width="20.798" height="29.712" transform="translate(2.772 13.37)"/></g><g transform="translate(69.75 422.762)"><rect class="b" width="11.885" height="47.539" transform="translate(19.685 0)"/><g transform="translate(0 5.2)"><path class="c" d="M54.549,115.509H51.067V89.976a4.647,4.647,0,0,0-4.643-4.643H9.285a4.647,4.647,0,0,0-4.643,4.643v25.534H1.161A1.16,1.16,0,0,0,0,116.67v1.161a4.647,4.647,0,0,0,4.643,4.643H51.068a4.647,4.647,0,0,0,4.642-4.643V116.67A1.16,1.16,0,0,0,54.549,115.509ZM6.964,89.976a2.324,2.324,0,0,1,2.321-2.321h37.14a2.324,2.324,0,0,1,2.321,2.321v25.534H6.964Zm44.1,30.176H4.643a2.324,2.324,0,0,1-2.321-2.321h19.25l.821.821a1.16,1.16,0,0,0,.821.34H32.5a1.16,1.16,0,0,0,.821-.34l.821-.821h19.25A2.324,2.324,0,0,1,51.067,120.152Z" transform="translate(0 -85.333)"/></g><rect class="d" width="40.111" height="25.255" transform="translate(7.8 8.914)"/></g></g><g transform="translate(-5925.668 95.788)"><path class="e" d="M138.585,282.212H70.779V319.88h67.805Z" transform="translate(5992.159)"/><path class="f" d="M109.461,323.615a7.624,7.624,0,1,0-7.623-7.624A7.624,7.624,0,0,0,109.461,323.615Z" transform="translate(6011.365 16.174)"/><path class="f" d="M78.875,323.615a7.624,7.624,0,1,0-7.624-7.624A7.624,7.624,0,0,0,78.875,323.615Z" transform="translate(5992.45 16.174)"/><path class="f" d="M98.713,323.615a7.624,7.624,0,1,0-7.624-7.624A7.624,7.624,0,0,0,98.713,323.615Z" transform="translate(6004.718 16.174)"/><path class="g" d="M116.593,313.025H111.66" transform="translate(6017.439 19.055)"/><path class="g" d="M71.09,308.366h70.591" transform="translate(5992.351 16.173)"/><path class="f" d="M133.7,290.081l9.6,17.676" transform="translate(6031.068 4.866)"/><path class="f" d="M117.685,331.884h43.876V313.359l-26.9-3V294.751s-7.958-12.222-16.974-12.222Z" transform="translate(6021.165 0.196)"/><path class="f" d="M136.5,305.985H114.708v11.393H136.5Z" transform="translate(6019.324 14.701)"/><path class="g" d="M59.2,287.046h55.816" transform="translate(5985 2.989)"/><path class="g" d="M60.918,293.846h53.04" transform="translate(5986.061 7.194)"/><path class="g" d="M64.632,300.647h47.03" transform="translate(5988.357 11.4)"/><path class="f" d="M139.633,323.615a7.624,7.624,0,1,0-7.623-7.624A7.624,7.624,0,0,0,139.633,323.615Z" transform="translate(6030.023 16.174)"/><path d="M140.81,314.206a2.964,2.964,0,1,1-.867-2.085A2.963,2.963,0,0,1,140.81,314.206Z" transform="translate(6031.8 17.958)"/><path d="M140.81,314.206a2.964,2.964,0,1,1-.867-2.085A2.963,2.963,0,0,1,140.81,314.206Z" transform="translate(5982.8 17.958)"/><path d="M110.643,314.206a1.233,1.233,0,1,0-.031,0" transform="translate(6013.146 17.958)"/><path d="M99.89,314.206a2.965,2.965,0,1,1-.868-2.085A2.963,2.963,0,0,1,99.89,314.206Z" transform="translate(6006.495 17.958)"/><path d="M80.051,314.206a2.966,2.966,0,1,1-.868-2.085A2.965,2.965,0,0,1,80.051,314.206Z" transform="translate(5994.227 17.958)"/><path class="g" d="M128.18,290.081h12.712" transform="translate(6027.655 4.866)"/></g></g></svg>