<svg xmlns="http://www.w3.org/2000/svg" width="84.272" height="88.236" viewBox="0 0 84.272 88.236"><defs><style>.a,.c{fill:#645a53;}.a{stroke:#fafafa;stroke-miterlimit:10;stroke-width:0.5px;}.b,.e{fill:none;}.b{stroke:#acacac;stroke-width:3px;opacity:0.58;mix-blend-mode:darken;isolation:isolate;}.c{stroke:#e9e5e1;stroke-width:4px;}.d{stroke:none;}</style></defs><g transform="translate(10.921 4.85)"><path class="a" d="M81.867,79.6,61.144,58.876A31.524,31.524,0,1,0,58,62.023L78.72,82.746A2.226,2.226,0,0,0,81.867,79.6ZM10.411,38.284A26.995,26.995,0,1,1,37.406,65.279,27.025,27.025,0,0,1,10.411,38.284Z" transform="translate(-9.419 -0.262)"/><g class="b" transform="translate(4.802 16.549)"><ellipse class="d" cx="22.958" cy="21.723" rx="22.958" ry="21.723"/><ellipse class="e" cx="22.958" cy="21.723" rx="21.458" ry="20.223"/></g><g class="c" transform="translate(52.987 0.776) rotate(39)"><rect class="d" width="4.939" height="92.612" rx="2.47"/><rect class="e" x="-2" y="-2" width="8.939" height="96.612" rx="4.47"/></g></g></svg>