<svg xmlns="http://www.w3.org/2000/svg" width="240" height="240" viewBox="0 0 240 240"><defs><style>.a,.c,.e{fill:#f85f14;}.a{opacity:0.08;}.b{fill:none;}.c{stroke:#f85f14;stroke-width:2px;font-size:40px;font-family:Ming-Lt-HKSCS-ExtB, MingLiU_HKSCS-ExtB;}.d,.e{stroke:none;}</style></defs><g transform="translate(-68 -201)"><circle class="a" cx="120" cy="120" r="120" transform="translate(68 201)"/><g transform="translate(0 100)"><g class="b" transform="translate(138 169)"><path class="d" d="M43.1,11.722a8,8,0,0,1,13.791,0L92.908,72.944A8,8,0,0,1,86.013,85H13.987a8,8,0,0,1-6.9-12.056Z"/><path class="e" d="M 49.99999618530273 13.77847290039063 C 49.57277679443359 13.77847290039063 48.78076171875 13.90656280517578 48.276123046875 14.76443481445313 L 12.26346588134766 75.98594665527344 C 11.75167083740234 76.85600280761719 12.03612518310547 77.61685180664063 12.25123596191406 77.99294281005859 C 12.46633911132813 78.36904907226563 12.97792053222656 79 13.98734283447266 79 L 86.01266479492188 79 C 87.02207183837891 79 87.53365325927734 78.36904907226563 87.74876403808594 77.99296569824219 C 87.9638671875 77.61685180664063 88.24832153320313 76.85600280761719 87.73652648925781 75.9859619140625 L 51.72385025024414 14.76441955566406 C 51.21923065185547 13.90656280517578 50.42721557617188 13.77847290039063 49.99999618530273 13.77847290039063 M 49.99999618530273 7.778465270996094 C 52.67443084716797 7.778465270996094 55.34886932373047 9.09307861328125 56.89546966552734 11.72230529785156 L 92.90812683105469 72.94383239746094 C 96.04523468017578 78.27690887451172 92.19999694824219 85 86.01266479492188 85 L 13.98734283447266 85 C 7.800010681152344 85 3.954757690429688 78.27690887451172 7.091850280761719 72.94383239746094 L 43.10452270507813 11.72230529785156 C 44.651123046875 9.09307861328125 47.3255615234375 7.778465270996094 49.99999618530273 7.778465270996094 Z"/></g><text class="c" transform="translate(188 236)"><tspan x="-10" y="0">!</tspan></text></g></g></svg>