<svg xmlns="http://www.w3.org/2000/svg" width="13.151" height="13.209" viewBox="0 0 13.151 13.209"><path d="M11.415,35.28a1.379,1.379,0,0,0-1-.459,1.426,1.426,0,0,0-1.012.456l-.935.932c-.077-.041-.154-.08-.228-.118-.107-.053-.207-.1-.293-.157a10.163,10.163,0,0,1-2.435-2.219,6,6,0,0,1-.8-1.261c.243-.222.468-.453.687-.675l.249-.252a1.358,1.358,0,0,0,0-2.048l-.808-.808c-.092-.092-.186-.186-.275-.281-.178-.183-.364-.373-.556-.55a1.4,1.4,0,0,0-.991-.435,1.449,1.449,0,0,0-1.006.435L2,27.847,1,28.862a2.165,2.165,0,0,0-.642,1.376,5.187,5.187,0,0,0,.379,2.2A12.741,12.741,0,0,0,3,36.209,13.925,13.925,0,0,0,7.636,39.84a7.225,7.225,0,0,0,2.6.769c.062,0,.127.006.186.006a2.23,2.23,0,0,0,1.707-.734c0-.006.009-.009.012-.015a6.727,6.727,0,0,1,.518-.536c.127-.121.257-.249.385-.382a1.476,1.476,0,0,0,.447-1.024,1.422,1.422,0,0,0-.456-1.015ZM12.474,38.4s0,0,0,0c-.115.124-.234.237-.361.361a7.782,7.782,0,0,0-.571.592,1.427,1.427,0,0,1-1.113.47c-.044,0-.092,0-.136,0a6.418,6.418,0,0,1-2.308-.692A13.145,13.145,0,0,1,3.618,35.7a12.013,12.013,0,0,1-2.131-3.548A4.225,4.225,0,0,1,1.156,30.3a1.358,1.358,0,0,1,.408-.879l1.009-1.009a.673.673,0,0,1,.45-.21.633.633,0,0,1,.432.207l.009.009c.181.169.352.343.533.53.092.095.186.189.281.287l.808.808a.565.565,0,0,1,0,.917c-.086.086-.169.172-.254.254-.249.254-.485.491-.743.722-.006.006-.012.009-.015.015a.6.6,0,0,0-.154.672l.009.027a6.486,6.486,0,0,0,.956,1.559l0,0a10.861,10.861,0,0,0,2.628,2.391,4.04,4.04,0,0,0,.364.2c.107.053.207.1.293.157l.036.021a.641.641,0,0,0,.293.074.633.633,0,0,0,.45-.2l1.012-1.012a.669.669,0,0,1,.447-.222.6.6,0,0,1,.426.216l.006.006,1.63,1.63A.585.585,0,0,1,12.474,38.4Z" transform="translate(-0.344 -27.406)"/></svg>