<svg xmlns="http://www.w3.org/2000/svg" width="60.007" height="51.634" viewBox="0 0 60.007 51.634"><defs><style>.a{fill:#fff;}.a,.b,.c{stroke:#000;stroke-linecap:round;stroke-linejoin:round;stroke-width:1.5px;}.b{fill:#ff6418;}.c{fill:none;}</style></defs><g transform="translate(-6056.996 -434.183)"><path class="a" d="M102.038,455.619H77.017v20.687h25.021Z" transform="translate(5985)"/><path class="a" d="M127.054,455.619H102.032v20.687h25.022Z" transform="translate(5985)"/><path class="a" d="M102.038,434.933H77.017v20.686h25.021Z" transform="translate(5985)"/><path class="b" d="M127.073,482.311v-3.242h4.18v-2.757H72.746v2.757h4.18v3.242h-4.18v2.756h58.507v-2.756Z" transform="translate(5985)"/><path class="a" d="M121.153,479.069H82.918a1.617,1.617,0,0,0-1.618,1.617v.007a1.618,1.618,0,0,0,1.618,1.618h38.235a1.618,1.618,0,0,0,1.618-1.618v-.007A1.617,1.617,0,0,0,121.153,479.069Z" transform="translate(5985)"/><path class="a" d="M127.054,434.933H102.032v20.686h25.022Z" transform="translate(5985)"/><path class="c" d="M111.479,439.042v6.244" transform="translate(5985)"/><path class="c" d="M108.419,441.818l3.061-3.061,3.067,3.061" transform="translate(5985)"/><path class="c" d="M117.606,439.042v6.244" transform="translate(5985)"/><path class="c" d="M114.546,441.818l3.06-3.061,3.061,3.061" transform="translate(5985)"/><path class="c" d="M86.457,439.042v6.244" transform="translate(5985)"/><path class="c" d="M83.391,441.818l3.067-3.061,3.061,3.061" transform="translate(5985)"/><path class="c" d="M92.585,439.042v6.244" transform="translate(5985)"/><path class="c" d="M89.518,441.818l3.067-3.061,3.061,3.061" transform="translate(5985)"/><path class="c" d="M111.479,459.528v6.244" transform="translate(5985)"/><path class="c" d="M108.419,462.31l3.061-3.067,3.067,3.067" transform="translate(5985)"/><path class="c" d="M117.606,459.528v6.244" transform="translate(5985)"/><path class="c" d="M114.546,462.31l3.06-3.067,3.061,3.067" transform="translate(5985)"/><path class="c" d="M86.457,459.728v6.244" transform="translate(5985)"/><path class="c" d="M83.4,462.511l3.061-3.067,3.067,3.067" transform="translate(5985)"/><path class="c" d="M92.585,459.728v6.244" transform="translate(5985)"/><path class="c" d="M89.524,462.511l3.061-3.067,3.067,3.067" transform="translate(5985)"/></g></svg>