<svg xmlns="http://www.w3.org/2000/svg" width="15.985" height="11.489" viewBox="0 0 15.985 11.489"><defs><style>.a{fill:#fff;}</style></defs><g transform="translate(0 -2.789)"><path class="a" d="M8.863,8.241A4.237,4.237,0,0,0,7.132,7.123a3.1,3.1,0,1,0-4.148,0A4.238,4.238,0,0,0,1.253,8.241,4.5,4.5,0,0,0,0,11.348v.489H10.116v-.489A4.5,4.5,0,0,0,8.863,8.241ZM2.937,4.821A2.121,2.121,0,1,1,5.058,6.942,2.123,2.123,0,0,1,2.937,4.821ZM1.013,10.858A3.377,3.377,0,0,1,4.079,7.921H6.037A3.377,3.377,0,0,1,9.1,10.858Z" transform="translate(0 2.441)"/><g transform="translate(7.657 -7.62) rotate(45)"><rect class="a" width="1.5" height="7.5" transform="translate(12.5 2.221)"/><rect class="a" width="1.5" height="7.5" transform="translate(9.5 6.721) rotate(-90)"/></g></g></svg>