<?xml version="1.0" encoding="utf-8"?>
<!-- Generator: Adobe Illustrator 24.3.0, SVG Export Plug-In . SVG Version: 6.00 Build 0)  -->
<svg version="1.1" id="Layer_1" xmlns="http://www.w3.org/2000/svg" xmlns:xlink="http://www.w3.org/1999/xlink" x="0px" y="0px"
	 viewBox="0 0 21.8 16.3" style="enable-background:new 0 0 21.8 16.3;" xml:space="preserve">
<style type="text/css">
	.st0{fill:#F85F14;stroke:#31261D;stroke-width:1.5;stroke-linecap:round;stroke-linejoin:round;}
</style>
<g id="Group_3429" transform="translate(-1045.37 -815.886)">
	<path id="Path_6411" class="st0" d="M1046.4,824c0,0,3.6-7.2,9.9-7.2s9.9,7.2,9.9,7.2s-3.6,7.2-9.9,7.2S1046.4,824,1046.4,824z"/>
	<path id="Path_6412" class="st0" d="M1058.2,822.1c1.1,1,1.1,2.8,0,3.8c-1,1.1-2.8,1.1-3.8,0s-1.1-2.8,0-3.8c0,0,0,0,0,0
		C1055.4,821.1,1057.1,821.1,1058.2,822.1C1058.2,822.1,1058.2,822.1,1058.2,822.1z"/>
</g>
</svg>
