<svg xmlns="http://www.w3.org/2000/svg" width="16" height="12.557" viewBox="0 0 16 12.557"><defs><style>.a{fill:#fff;}</style></defs><g transform="translate(0 -1.721)"><path class="a" d="M11,9.815A5.26,5.26,0,0,0,8.853,8.427a3.848,3.848,0,1,0-5.149,0A5.261,5.261,0,0,0,1.555,9.815,5.59,5.59,0,0,0,0,13.671v.608H12.557v-.608A5.59,5.59,0,0,0,11,9.815ZM3.646,5.57A2.633,2.633,0,1,1,6.278,8.2,2.636,2.636,0,0,1,3.646,5.57ZM1.258,13.063A4.191,4.191,0,0,1,5.063,9.418h2.43A4.191,4.191,0,0,1,11.3,13.063Z"/><path class="a" d="M14.178,6.987V5.164H12.962V6.987H11.14V8.2h1.823v1.823h1.215V8.2H16V6.987Z"/></g></svg>