<svg xmlns="http://www.w3.org/2000/svg" width="18.141" height="13.998" viewBox="0 0 18.141 13.998"><defs><style>.a,.b,.d{fill:none;}.a{stroke:#000;stroke-width:1.5px;}.c,.e{stroke:none;}</style></defs><g class="a" transform="translate(3.223)"><circle class="c" cx="4" cy="4" r="4"/><circle class="d" cx="4" cy="4" r="3.25"/></g><g class="b" transform="translate(0 6.811)"><path class="c" d="M7.366,0c4.469,0,7.748,2.561,7.366,7.186C14.689,7.1-.012,7.193,0,7.186.056,2.269,2.9,0,7.366,0Z"/><path class="e" d="M 7.365786552429199 1.500000953674316 C 4.019692420959473 1.500000953674316 2.132040977478027 2.870622158050537 1.633664131164551 5.679596424102783 C 1.677031517028809 5.679384231567383 1.721061706542969 5.679169178009033 1.76569652557373 5.678950786590576 C 4.002256393432617 5.667990684509277 8.165355682373047 5.647601127624512 11.13764667510986 5.647601127624512 C 11.96847152709961 5.647601127624512 12.66283988952637 5.649198055267334 13.21060562133789 5.652358055114746 C 13.08218765258789 4.690064430236816 12.71481037139893 3.87572979927063 12.11185646057129 3.220830917358398 C 11.09017562866211 2.111140727996826 9.404656410217285 1.500000953674316 7.365786552429199 1.500000953674316 M 7.365786552429199 9.5367431640625e-07 C 11.83431625366211 9.5367431640625e-07 15.11426639556885 2.560531139373779 14.73158645629883 7.186110973358154 C 14.71797943115234 7.157242298126221 13.19686126708984 7.147602081298828 11.1376428604126 7.147602081298828 C 7.001566886901855 7.147602081298828 0.6923027038574219 7.186475276947021 0.05262470245361328 7.186475276947021 C 0.01746082305908203 7.186475276947021 -0.0004110336303710938 7.186358451843262 -3.814697265625e-06 7.186110973358154 C 0.0561065673828125 2.269461154937744 2.897266387939453 9.5367431640625e-07 7.365786552429199 9.5367431640625e-07 Z"/></g><g transform="translate(13.35 3.22)"><line class="a" y2="4.791" transform="translate(2.395)"/><line class="a" x2="4.791" transform="translate(0 2.395)"/></g></svg>