<svg xmlns="http://www.w3.org/2000/svg" width="12" height="12" viewBox="0 0 12 12"><g transform="translate(-61 -558)"><path d="M71.125,562.758h-.937a.469.469,0,0,0-.469.469v4.9a.47.47,0,0,1-.469.469H67.82v.015a.938.938,0,1,0,0,.907v.015h1.43a1.408,1.408,0,0,0,1.406-1.406V568.1h.469A1.878,1.878,0,0,0,73,566.227v-1.594A1.877,1.877,0,0,0,71.125,562.758Zm.938,3.469a.939.939,0,0,1-.937.937h-.469V563.7h.469a.939.939,0,0,1,.938.938Z"/><path d="M63.813,562.758h-.926a4.126,4.126,0,0,1,7.984-1.127.469.469,0,0,0,.879-.325,5.063,5.063,0,0,0-9.811,1.7A1.874,1.874,0,0,0,61,564.633v1.594a1.878,1.878,0,0,0,1.875,1.875h.938a.469.469,0,0,0,.469-.469v-4.406A.469.469,0,0,0,63.813,562.758Zm-.469,4.406h-.469a.939.939,0,0,1-.937-.937v-1.594a.939.939,0,0,1,.938-.938h.469Z"/><path d="M71.125,562.758h-.937a.469.469,0,0,0-.469.469v4.9a.47.47,0,0,1-.469.469H67.82v.015a.938.938,0,1,0,0,.907v.015h1.43a1.408,1.408,0,0,0,1.406-1.406V568.1h.469A1.878,1.878,0,0,0,73,566.227v-1.594A1.877,1.877,0,0,0,71.125,562.758Zm.938,3.469a.939.939,0,0,1-.937.937h-.469V563.7h.469a.939.939,0,0,1,.938.938Z"/></g></svg>