<svg xmlns="http://www.w3.org/2000/svg" width="16.939" height="16.939" viewBox="0 0 16.939 16.939"><defs><style>.a{fill:#ff6418;}</style></defs><g transform="translate(0)"><g transform="translate(0 0)"><path class="a" d="M2.212,184.017l2,2A2.117,2.117,0,1,0,7.2,183.019L3.21,179.026a2.117,2.117,0,0,0-2.994,0,.706.706,0,0,1-1,0,.706.706,0,0,1,0-1,3.528,3.528,0,0,1,4.99,0L8.2,182.021a3.529,3.529,0,1,1-4.991,4.99l-2-2a.706.706,0,0,1,1-1Z" transform="translate(7.704 -171.106)"/><path class="a" d="M190.974,5.032a3.529,3.529,0,0,1,4.991-4.99l2.395,2.395a.706.706,0,1,1-1,1L194.967,1.04a2.117,2.117,0,0,0-2.995,2.994l4.392,4.392a2.117,2.117,0,0,0,2.994,0,.706.706,0,0,1,1,1,3.528,3.528,0,0,1-4.99,0Z" transform="translate(-189.941 0.992)"/><path class="a" d="M364,361.884a.706.706,0,0,1,1,1L362.886,365a.706.706,0,0,1-1-1Z" transform="translate(-360.269 -349.679)"/><path class="a" d="M42.86,44.975a.706.706,0,0,1-1-1l2.119-2.119a.706.706,0,0,1,1,1Z" transform="translate(-29.657 -40.241)"/><path class="a" d="M405.043,319h2.117a.706.706,0,1,1,0,1.412h-2.117a.706.706,0,0,1,0-1.412Z" transform="translate(-404.337 -308.413)"/><path class="a" d="M149.043,2.529a.706.706,0,0,1-.706-.706V-.294A.706.706,0,0,1,149.043-1a.706.706,0,0,1,.706.706V1.823A.706.706,0,0,1,149.043,2.529Z" transform="translate(-137.75 1)"/><path class="a" d="M1.826,149.746H-.291A.706.706,0,0,1-1,149.04a.706.706,0,0,1,.706-.706H1.826a.706.706,0,0,1,0,1.412Z" transform="translate(14.407 -143.393)"/><path class="a" d="M319.709,404.333a.706.706,0,0,1,.706.706v2.117a.706.706,0,0,1-1.412,0v-2.117A.706.706,0,0,1,319.709,404.333Z" transform="translate(-314.062 -390.923)"/></g></g></svg>