<svg xmlns="http://www.w3.org/2000/svg" width="11.341" height="11.594" viewBox="0 0 11.341 11.594"><defs><style>.a{fill:#ff6418;stroke:#ff6418;stroke-width:0.5px;}</style></defs><path class="a" d="M10.853,0H.962A.465.465,0,0,0,.548.252a.471.471,0,0,0,.037.49l3.624,5.1,0,.005a1.035,1.035,0,0,1,.2.614v4.162a.463.463,0,0,0,.463.466.477.477,0,0,0,.182-.037L7.1,10.281a.441.441,0,0,0,.3-.435V6.467a1.036,1.036,0,0,1,.2-.614l0-.005,3.624-5.1a.471.471,0,0,0,.037-.49A.465.465,0,0,0,10.853,0Zm-3.7,5.519a1.6,1.6,0,0,0-.313.948V9.778l-1.858.709V6.467a1.6,1.6,0,0,0-.313-.948L1.148.563h9.52Zm0,0" transform="translate(-0.237 0.25)"/></svg>