<svg xmlns="http://www.w3.org/2000/svg" width="36" height="36" viewBox="0 0 36 36"><defs><style>.a{fill:#ff6418;}.b,.c{fill:#fff;}.b{stroke:#fff;stroke-width:0.5px;}</style></defs><g transform="translate(-30 -158.5)"><circle class="a" cx="18" cy="18" r="18" transform="translate(30 158.5)"/><g transform="translate(20.888 164.5)"><path class="b" d="M37.842,6.361c-.013-.667-.025-1.3-.025-1.906a.865.865,0,0,0-.865-.865A11.922,11.922,0,0,1,28.093.245a.864.864,0,0,0-1.206,0A11.92,11.92,0,0,1,18.028,3.59a.865.865,0,0,0-.865.865c0,.61-.012,1.24-.025,1.907-.119,6.207-.281,14.707,10.068,18.294a.864.864,0,0,0,.566,0C38.123,21.068,37.96,12.567,37.842,6.361ZM27.49,22.921C18.614,19.7,18.748,12.633,18.868,6.394c.007-.374.014-.737.019-1.093a13.333,13.333,0,0,0,8.6-3.261,13.335,13.335,0,0,0,8.6,3.261c0,.356.012.718.019,1.093C36.232,12.633,36.366,19.7,27.49,22.921Z" transform="translate(0)"/><path class="c" d="M78.156,79.214l-5.418,5.418L70.426,82.32a1.123,1.123,0,0,0-1.588,1.588l3.106,3.106a1.123,1.123,0,0,0,1.588,0L79.743,80.8a1.123,1.123,0,1,0-1.587-1.588Z" transform="translate(-46.801 -70.763)"/></g></g></svg>