<svg xmlns="http://www.w3.org/2000/svg" width="53.5" height="33.068" viewBox="0 0 53.5 33.068"><defs><style>.a{fill:#fff;}.a,.b{stroke:#000;stroke-linecap:round;stroke-linejoin:round;stroke-width:1.5px;}.b{fill:#ff6418;}</style></defs><g transform="translate(0.75 0.75)"><path class="a" d="M292.9,442.394H245v27.438h47.9Z" transform="translate(-244.999 -442.394)"/><path class="b" d="M288.974,460.119a2.738,2.738,0,1,0-2.738-2.739A2.739,2.739,0,0,0,288.974,460.119Z" transform="translate(-249.266 -443.661)"/><path class="b" d="M253.23,460.119a2.738,2.738,0,1,0-2.738-2.739A2.738,2.738,0,0,0,253.23,460.119Z" transform="translate(-245.567 -443.661)"/><path class="b" d="M273.039,455.2l-2.367-.5c-1.729-.394-2.384-.923-2.384-1.99s.992-1.676,2.535-1.676a4.572,4.572,0,0,1,4.206,2.507l2.541-2.129a6.4,6.4,0,0,0-5.151-3.156v-2.68H269.4V448.3c-2.9.47-4.682,2.187-4.682,4.716,0,2.738,1.653,4.282,4.508,4.9l2.187.458c1.653.348,2.367.807,2.367,2.024s-1.242,1.862-2.808,1.862a4.735,4.735,0,0,1-4.42-2.807l-2.9,2.024a7.043,7.043,0,0,0,5.738,3.707v2.128h3.022v-2.146c3.278-.475,5.081-2.436,5.081-5.133C277.5,457.225,275.94,455.844,273.039,455.2Z" transform="translate(-246.929 -442.723)"/><path class="b" d="M297.472,474.439h-47.9v-4.13h43.8V447h4.1Z" transform="translate(-245.472 -442.871)"/></g></svg>