<svg xmlns="http://www.w3.org/2000/svg" width="77.149" height="90.996" viewBox="0 0 77.149 90.996"><defs><style>.a,.b{fill:#645a53;}.b{stroke:#e9e5e1;stroke-width:4px;}.c{stroke:none;}.d{fill:none;}</style></defs><g transform="translate(12.775 1.148)"><path class="a" d="M64.87,11.13a38,38,0,0,0-53.74,53.74A38,38,0,0,0,64.87,11.13ZM19.05,65.667a19.242,19.242,0,0,1,37.9,0,33.474,33.474,0,0,1-37.9,0ZM25.917,33.23A12.083,12.083,0,1,1,38,45.313,12.1,12.1,0,0,1,25.917,33.23ZM60.806,62.578a23.732,23.732,0,0,0-13.8-15.489,16.536,16.536,0,1,0-18.02,0,23.729,23.729,0,0,0-13.8,15.488,33.547,33.547,0,1,1,45.613,0Zm0,0" transform="translate(-12.294 6.592)"/><g class="b" transform="translate(54.91 4.478) rotate(39)"><rect class="c" width="4.939" height="98.612" rx="2.47"/><rect class="d" x="-2" y="-2" width="8.939" height="102.612" rx="4.47"/></g></g></svg>