<svg xmlns="http://www.w3.org/2000/svg" width="27.031" height="24.961" viewBox="0 0 27.031 24.961"><defs><style>.a,.b,.c{fill:none;stroke:#ff6418;stroke-width:1.5px;}.b,.c{stroke-linecap:round;}.b{stroke-miterlimit:10;}</style></defs><g transform="translate(-142.618 -308.72)"><g transform="translate(143.371 309.659)"><path class="a" d="M4.827,0A3.648,3.648,0,0,0,1.12,3.585,3.648,3.648,0,0,0,4.827,7.171,3.648,3.648,0,0,0,8.535,3.585,3.648,3.648,0,0,0,4.827,0Z" transform="translate(0.613 3.837)"/><path class="a" d="M4.827,0A3.648,3.648,0,0,0,1.12,3.585,3.648,3.648,0,0,0,4.827,7.171,3.648,3.648,0,0,0,8.535,3.585,3.648,3.648,0,0,0,4.827,0Z" transform="translate(15.571 10.247)"/><path class="b" d="M11.544,11.822A5.609,5.609,0,0,0,8.87,6.737a5.474,5.474,0,0,0-5.694,0A5.609,5.609,0,0,0,.5,11.822" transform="translate(-0.495 5.108)"/><path class="b" d="M20.376,19.092a5.529,5.529,0,1,0-11.056,0" transform="translate(5.152 4.179)"/><path class="b" d="M0,.025A5.033,5.033,0,0,1,5.483,4.583" transform="matrix(0.966, -0.259, 0.259, 0.966, 11.369, 1.419)"/><path class="b" d="M5.829,0,3.245,3.723,0,1.413" transform="translate(14.43 3.732) rotate(-24)"/><line class="c" x2="10.736" transform="translate(0.228 16.967)"/><line class="c" x2="10.736" transform="translate(14.735 23.271)"/></g></g></svg>