<svg xmlns="http://www.w3.org/2000/svg" width="17.948" height="16.471" viewBox="0 0 17.948 16.471"><defs><style>.a,.b,.c{fill:none;stroke:#fff;stroke-width:1.3px;}.a,.c{stroke-linecap:round;}.a{stroke-miterlimit:10;}</style></defs><g transform="translate(1.652 -1.052)"><g transform="translate(-1.147 0.387) rotate(-2)"><path class="a" d="M9.35,2A3.446,3.446,0,0,1,13.1,5.122" transform="translate(-1.916 3.839) rotate(-17)"/><path class="a" d="M15.674,3.66,13.642,6.209,11.09,4.628" transform="matrix(0.927, -0.375, 0.375, 0.927, -2.432, 5.307)"/></g><g transform="translate(-1 3)"><path class="a" d="M8.059,9.966A3.84,3.84,0,0,0,6.229,6.485a3.748,3.748,0,0,0-3.9,0A3.84,3.84,0,0,0,.5,9.966" transform="translate(-0.495 0.24)"/><path class="b" d="M12.243,8.131m0-.761a2.33,2.33,0,1,0,2.3,2.329A2.316,2.316,0,0,0,12.243,7.37Z" transform="translate(-8.226 -5.994)"/><line class="c" x2="7.35" transform="translate(0.156 10.232)"/></g><g transform="translate(0 -1)"><path class="b" d="M12.243,8.131m0-.761a2.33,2.33,0,1,0,2.3,2.329A2.316,2.316,0,0,0,12.243,7.37Z" transform="translate(-0.226 2.006)"/><path class="a" d="M16.89,17.329a3.785,3.785,0,1,0-7.57,0" transform="translate(-1.244 0.545)"/><line class="c" x2="7.35" transform="translate(8.256 17.873)"/></g></g></svg>