<svg xmlns="http://www.w3.org/2000/svg" width="116" height="34.513" viewBox="0 0 116 34.513"><defs><style>.a{fill:#f37324;}</style></defs><g transform="translate(-1.458)"><path class="a" d="M50.63,417.913l2.328-1.608a3.831,3.831,0,0,0,3.594,2.225c1.267,0,2.27-.456,2.27-1.481,0-.966-.576-1.332-1.916-1.608l-1.768-.366c-2.307-.493-3.648-1.715-3.648-3.886,0-2.373,1.974-3.849,5.157-3.849,2.344,0,4.318.839,5.248,2.574l-2.048,1.7a3.721,3.721,0,0,0-3.405-1.99c-1.246,0-2.048.51-2.048,1.332,0,.839.522,1.258,1.916,1.571l1.916.4c2.344.51,3.611,1.608,3.611,3.833,0,2.463-1.937,4.162-5.4,4.162C53.591,420.928,51.543,419.74,50.63,417.913Z" transform="translate(-49.172 -407.34)"/><path class="a" d="M80.06,421.683c0-2.973,1.879-4.783,4.931-4.783,2.439,0,4.059,1.168,4.413,3.232l-2.809.568c-.169-1.077-.765-1.641-1.674-1.641-1.135,0-1.826.95-1.826,2.537,0,1.715.67,2.7,1.842,2.7.929,0,1.509-.6,1.674-1.7l2.792.6c-.337,2.007-2.065,3.265-4.45,3.265A4.557,4.557,0,0,1,80.06,421.683Z" transform="translate(-66.498 -412.968)"/><path class="a" d="M106.77,407.45h3v5.729a3.009,3.009,0,0,1,2.961-1.879c2.011,0,3.035,1.259,3.035,3.706v5.675h-2.978V415.3c0-1.168-.465-1.752-1.378-1.752-1.061,0-1.637.786-1.637,2.225v4.91h-3V407.45Z" transform="translate(-82.224 -407.405)"/><path class="a" d="M133.89,417.089h2.866v1.752a3.22,3.22,0,0,1,3.089-1.991c2.011,0,3.035,1.258,3.035,3.706v5.659H139.9v-5.256c0-1.258-.448-1.863-1.394-1.863-1.04,0-1.62.785-1.62,2.188v4.927h-3Z" transform="translate(-98.19 -412.939)"/><path class="a" d="M168.586,422.341h-6.457a1.986,1.986,0,0,0,2.139,2.028,2.153,2.153,0,0,0,2.027-1.279l2.2.987a4.561,4.561,0,0,1-4.261,2.389c-3.072,0-4.931-1.735-4.931-4.692,0-2.994,1.826-4.873,4.729-4.873,2.924,0,4.561,1.661,4.561,4.565v.876Zm-2.887-1.719c0-1.3-.613-1.99-1.731-1.99-1.156,0-1.805.765-1.842,2.065H165.7Z" transform="translate(-113.15 -412.968)"/><path class="a" d="M185.92,407.76h3.109v2.665H185.92Zm.037,3.977h3v9.126h-3Z" transform="translate(-128.822 -407.587)"/><path class="a" d="M197.33,416.156c0-2.9,1.563-4.82,3.891-4.82a2.708,2.708,0,0,1,2.624,1.444v-5.33h2.978v13.23h-2.829v-1.571a3.082,3.082,0,0,1-2.941,1.789C198.819,420.9,197.33,419,197.33,416.156Zm6.551.4v-.785c0-1.55-.633-2.41-1.694-2.41-1.135,0-1.789.987-1.789,2.739,0,1.715.687,2.776,1.826,2.776C203.248,418.875,203.881,417.978,203.881,416.555Z" transform="translate(-135.54 -407.405)"/><path class="a" d="M233.87,422.341h-6.461a1.986,1.986,0,0,0,2.139,2.028,2.153,2.153,0,0,0,2.028-1.279l2.2.987a4.561,4.561,0,0,1-4.261,2.389c-3.072,0-4.931-1.735-4.931-4.692,0-2.994,1.826-4.873,4.729-4.873,2.924,0,4.561,1.661,4.561,4.565Zm-2.887-1.719c0-1.3-.613-1.99-1.731-1.99-1.156,0-1.805.765-1.842,2.065h3.574Z" transform="translate(-151.583 -412.968)"/><path class="a" d="M257.2,416.9h.185v2.793a4.716,4.716,0,0,0-.559-.021,2.726,2.726,0,0,0-1.805.547,2.961,2.961,0,0,0-.744,2.3v3.722h-3v-9.126h2.809v2.352A3.122,3.122,0,0,1,257.2,416.9Z" transform="translate(-167.302 -412.968)"/><path d="M57.216,452.906V455.9H62.78v2.3H57.216v5.33H54.07V450.57h9.048v2.336Z" transform="translate(-51.197 -432.791)"/><path d="M85.792,459.36h.185v2.792a4.736,4.736,0,0,0-.559-.021,2.726,2.726,0,0,0-1.805.547,2.962,2.962,0,0,0-.744,2.3V468.7h-3v-9.126h2.809v2.352A3.122,3.122,0,0,1,85.792,459.36Z" transform="translate(-66.386 -437.966)"/><path d="M105.246,464.791H98.789a1.986,1.986,0,0,0,2.139,2.027,2.153,2.153,0,0,0,2.028-1.279l2.2.987a4.561,4.561,0,0,1-4.261,2.389c-3.072,0-4.931-1.736-4.931-4.692,0-2.994,1.826-4.873,4.729-4.873,2.924,0,4.561,1.661,4.561,4.565v.876Zm-2.887-1.715c0-1.3-.613-1.991-1.731-1.991-1.156,0-1.805.765-1.842,2.065h3.574Z" transform="translate(-75.859 -437.96)"/><path d="M122.58,450.22h3.109v2.665H122.58Zm.037,3.977h3v9.126h-3Z" transform="translate(-91.532 -432.585)"/><path d="M142.642,457.994a2.017,2.017,0,0,0-1.209.329,2.673,2.673,0,0,1,1.082,2.172c0,1.863-1.62,3.1-4.244,3.1a6.053,6.053,0,0,1-1.917-.276.56.56,0,0,0-.28.493c0,.457.391.749,1.283.749h2.607c2.27,0,3.426.929,3.426,2.665,0,2.081-1.863,3.339-5.363,3.339-3.089,0-4.577-.892-4.577-2.188,0-.732.539-1.316,1.6-1.645a1.756,1.756,0,0,1-1.267-1.715,2.193,2.193,0,0,1,1.674-2.081,2.741,2.741,0,0,1-1.452-2.447c0-1.842,1.637-3.047,4.261-3.047a6.35,6.35,0,0,1,2.139.329,2.525,2.525,0,0,1,2.7-1.661,2.593,2.593,0,0,1,.391.021v1.954A4.921,4.921,0,0,0,142.642,457.994Zm-5.939,9c-.243,0-.465-.021-.67-.037a1.121,1.121,0,0,0-.374.86c0,.8.95,1.147,2.5,1.147,1.937,0,2.735-.42,2.735-1.078,0-.584-.411-.876-1.246-.876Zm3-6.5a1.445,1.445,0,1,0-2.883,0,1.45,1.45,0,1,0,2.883,0Z" transform="translate(-97.931 -436.053)"/><path d="M161.2,449.91h3v5.729a3.009,3.009,0,0,1,2.961-1.879c2.011,0,3.035,1.258,3.035,3.706v5.675h-2.978v-5.383c0-1.168-.465-1.752-1.378-1.752-1.061,0-1.637.785-1.637,2.225v4.91h-3V449.91Z" transform="translate(-114.269 -432.403)"/><path d="M185.054,455.133h1.62v-2.192l2.978-1.131v3.323h2.217v1.954h-2.217v3.557a1.222,1.222,0,0,0,1.357,1.386,4.041,4.041,0,0,0,.855-.09v2.32a8.726,8.726,0,0,1-1.694.181c-2.476,0-3.5-1.114-3.5-3.1v-4.252h-1.62v-1.954Z" transform="translate(-128.31 -433.521)"/><path d="M216.271,454.641c0,2.574-1.842,4.178-4.82,4.178h-2.644v4.709H205.66V450.57h5.865C214.387,450.57,216.271,452.178,216.271,454.641Zm-3.3.09c0-1.221-.8-1.933-2.217-1.933H208.8v3.87h1.954C212.154,456.665,212.972,455.953,212.972,454.732Z" transform="translate(-140.444 -432.791)"/><path d="M232.01,464.122a4.461,4.461,0,0,1,4.82-4.762c2.755,0,4.841,1.624,4.841,4.762a4.83,4.83,0,0,1-9.661,0Zm6.683,0c0-1.879-.687-2.739-1.863-2.739-1.156,0-1.842.855-1.842,2.739,0,1.863.687,2.776,1.842,2.776C238,466.9,238.693,465.985,238.693,464.122Z" transform="translate(-155.957 -437.966)"/><path d="M256.46,459.89h2.85l1.172,5.585c.037.255.095.568.132.876h.037a5.8,5.8,0,0,1,.148-.876l1.357-5.585h2.533l1.357,5.585c.058.255.111.568.148.876h.037c.037-.308.074-.621.132-.876l1.156-5.585h2.85l-2.476,9.126h-2.9l-1.415-5.383a4.086,4.086,0,0,1-.132-.765h-.037a5.949,5.949,0,0,1-.132.765l-1.415,5.383h-2.9Z" transform="translate(-170.352 -438.278)"/><path d="M300.426,464.791h-6.457a1.986,1.986,0,0,0,2.139,2.027,2.153,2.153,0,0,0,2.028-1.279l2.2.987a4.561,4.561,0,0,1-4.261,2.389c-3.072,0-4.931-1.736-4.931-4.692,0-2.994,1.826-4.873,4.729-4.873,2.924,0,4.561,1.661,4.561,4.565v.876Zm-2.883-1.715c0-1.3-.613-1.991-1.731-1.991-1.156,0-1.805.765-1.842,2.065h3.574Z" transform="translate(-190.77 -437.96)"/><path d="M323.762,459.36h.185v2.792a4.737,4.737,0,0,0-.559-.021,2.727,2.727,0,0,0-1.805.547,2.961,2.961,0,0,0-.744,2.3V468.7h-3v-9.126h2.809v2.352A3.122,3.122,0,0,1,323.762,459.36Z" transform="translate(-206.489 -437.966)"/></g></svg>