<svg xmlns="http://www.w3.org/2000/svg" width="87.093" height="37.076" viewBox="0 0 87.093 37.076"><defs><style>.a{fill:#ff6418;}.a,.b,.c{stroke:#000;stroke-linecap:round;stroke-linejoin:round;}.a,.b,.c,.d{stroke-width:1.5px;}.b{fill:#fff;}.c{fill:none;}.d{stroke:#707070;}</style></defs><g transform="translate(-6043.453 -281.462)"><path class="a" d="M112.676,282.212h-41.9v23.275h41.9Z" transform="translate(5985)"/><path class="b" d="M106.548,317.788a4.711,4.711,0,1,0-4.71-4.711A4.711,4.711,0,0,0,106.548,317.788Z" transform="translate(5985)"/><path class="b" d="M75.962,317.788a4.711,4.711,0,1,0-4.711-4.711A4.711,4.711,0,0,0,75.962,317.788Z" transform="translate(5985)"/><path class="b" d="M95.8,317.788a4.711,4.711,0,1,0-4.711-4.711A4.711,4.711,0,0,0,95.8,317.788Z" transform="translate(5985)"/><path class="c" d="M114.708,313.025H111.66" transform="translate(5985)"/><path class="c" d="M71.09,308.366h43.618" transform="translate(5985)"/><path class="c" d="M133.7,290.081,139.633,301" transform="translate(5985)"/><path class="c" d="M117.685,313.025H144.8V301.579l-16.623-1.851v-9.647s-4.917-7.552-10.488-7.552Z" transform="translate(5985)"/><path class="b" d="M128.173,305.985H114.708v7.04h13.465Z" transform="translate(5985)"/><path class="c" d="M59.2,287.046H93.691" transform="translate(5985)"/><path class="c" d="M60.918,293.846H93.691" transform="translate(5985)"/><path class="c" d="M64.632,300.647H93.691" transform="translate(5985)"/><path class="b" d="M136.72,317.788a4.711,4.711,0,1,0-4.71-4.711A4.711,4.711,0,0,0,136.72,317.788Z" transform="translate(5985)"/><path class="d" d="M138.545,313.077a1.832,1.832,0,1,1-.536-1.288A1.831,1.831,0,0,1,138.545,313.077Z" transform="translate(5985)"/><path class="d" d="M97.625,313.077a1.832,1.832,0,1,1-.536-1.288A1.831,1.831,0,0,1,97.625,313.077Z" transform="translate(5985)"/><path class="d" d="M97.625,313.077a1.832,1.832,0,1,1-.536-1.288A1.831,1.831,0,0,1,97.625,313.077Z" transform="translate(5995.757)"/><path class="d" d="M77.786,313.077a1.832,1.832,0,1,1-.536-1.288A1.832,1.832,0,0,1,77.786,313.077Z" transform="translate(5985)"/><path class="c" d="M128.18,290.081h7.855" transform="translate(5985)"/></g></svg>